G04 EAGLE Gerber RS-274X export*
G75*
%MOMM*%
%FSLAX34Y34*%
%LPD*%
%INTop Copper*%
%IPPOS*%
%AMOC8*
5,1,8,0,0,1.08239X$1,22.5*%
G01*
G04 Define Apertures*
%ADD10C,0.279400*%
%ADD11R,1.800000X0.863600*%
%ADD12R,0.863600X1.800000*%
%ADD13R,3.000000X1.270000*%
%ADD14R,1.815300X1.164600*%
%ADD15C,1.930400*%
%ADD16R,1.270000X3.000000*%
%ADD17R,1.600000X1.400000*%
%ADD18R,1.778000X1.778000*%
%ADD19C,1.778000*%
%ADD20R,1.164600X1.815300*%
%ADD21C,0.406400*%
%ADD22C,0.304800*%
G36*
X36625Y194466D02*
X35834Y194299D01*
X35040Y194453D01*
X33449Y195112D01*
X7112Y195112D01*
X6380Y195249D01*
X5698Y195685D01*
X5241Y196352D01*
X5080Y197144D01*
X5080Y341886D01*
X5217Y342619D01*
X5652Y343300D01*
X6319Y343757D01*
X7112Y343918D01*
X33449Y343918D01*
X35130Y344614D01*
X36416Y345900D01*
X37112Y347581D01*
X37112Y362099D01*
X36416Y363780D01*
X35130Y365066D01*
X33449Y365762D01*
X7112Y365762D01*
X6380Y365899D01*
X5698Y366334D01*
X5241Y367001D01*
X5080Y367794D01*
X5080Y384048D01*
X5217Y384781D01*
X5652Y385462D01*
X6319Y385919D01*
X7112Y386080D01*
X165608Y386080D01*
X166341Y385943D01*
X167022Y385508D01*
X167479Y384841D01*
X167640Y384048D01*
X167640Y382016D01*
X167503Y381284D01*
X167068Y380602D01*
X166401Y380145D01*
X165608Y379984D01*
X79966Y379984D01*
X77539Y378979D01*
X38855Y340294D01*
X37850Y337867D01*
X37850Y196331D01*
X37719Y195613D01*
X37288Y194929D01*
X36625Y194466D01*
G37*
G36*
X142348Y5241D02*
X141556Y5080D01*
X23114Y5080D01*
X22382Y5217D01*
X21700Y5652D01*
X21243Y6319D01*
X21082Y7112D01*
X21082Y33530D01*
X20386Y35210D01*
X19100Y36496D01*
X17419Y37192D01*
X7112Y37192D01*
X6380Y37329D01*
X5698Y37765D01*
X5241Y38432D01*
X5080Y39224D01*
X5080Y171236D01*
X5217Y171969D01*
X5652Y172650D01*
X6319Y173107D01*
X7112Y173268D01*
X33449Y173268D01*
X35040Y173927D01*
X35753Y174081D01*
X36550Y173945D01*
X37231Y173509D01*
X37689Y172842D01*
X37850Y172050D01*
X37850Y120204D01*
X37707Y119456D01*
X37266Y118778D01*
X36595Y118326D01*
X35514Y117878D01*
X34228Y116592D01*
X33532Y114912D01*
X33532Y83093D01*
X34228Y81413D01*
X35514Y80126D01*
X37194Y79430D01*
X51713Y79430D01*
X53393Y80126D01*
X54680Y81413D01*
X55276Y82853D01*
X55661Y83454D01*
X56317Y83927D01*
X57105Y84107D01*
X57901Y83965D01*
X58579Y83524D01*
X59031Y82853D01*
X59628Y81413D01*
X60914Y80126D01*
X62594Y79430D01*
X77113Y79430D01*
X78793Y80126D01*
X80080Y81413D01*
X80676Y82853D01*
X81061Y83454D01*
X81717Y83927D01*
X82505Y84107D01*
X83301Y83965D01*
X83979Y83524D01*
X84431Y82853D01*
X85028Y81413D01*
X86314Y80126D01*
X87994Y79430D01*
X93222Y79430D01*
X93222Y118574D01*
X87994Y118574D01*
X86314Y117878D01*
X85028Y116592D01*
X84431Y115152D01*
X84047Y114551D01*
X83391Y114078D01*
X82602Y113898D01*
X81806Y114040D01*
X81128Y114481D01*
X80676Y115152D01*
X80080Y116592D01*
X78793Y117878D01*
X77712Y118326D01*
X77076Y118744D01*
X76619Y119411D01*
X76458Y120204D01*
X76458Y147360D01*
X75452Y149787D01*
X62591Y162648D01*
X62157Y163292D01*
X61996Y164085D01*
X61996Y329014D01*
X62145Y329777D01*
X62591Y330451D01*
X88161Y356021D01*
X88805Y356455D01*
X89598Y356616D01*
X129054Y356616D01*
X129787Y356479D01*
X130468Y356044D01*
X130925Y355377D01*
X131086Y354584D01*
X131086Y342032D01*
X131782Y340351D01*
X133068Y339065D01*
X134749Y338369D01*
X154721Y338369D01*
X156401Y339065D01*
X157687Y340351D01*
X157917Y340906D01*
X158335Y341542D01*
X159002Y341999D01*
X159794Y342160D01*
X165608Y342160D01*
X166341Y342023D01*
X167022Y341588D01*
X167479Y340921D01*
X167640Y340128D01*
X167640Y318939D01*
X167503Y318207D01*
X167068Y317525D01*
X166401Y317068D01*
X165608Y316907D01*
X160415Y316907D01*
X159683Y317044D01*
X159001Y317480D01*
X158544Y318147D01*
X158383Y318939D01*
X158383Y325988D01*
X157687Y327669D01*
X156401Y328955D01*
X154721Y329651D01*
X134749Y329651D01*
X133068Y328955D01*
X132873Y328760D01*
X132229Y328326D01*
X131436Y328165D01*
X120112Y328165D01*
X119364Y328307D01*
X118686Y328749D01*
X118234Y329419D01*
X117786Y330501D01*
X116500Y331787D01*
X114820Y332483D01*
X83001Y332483D01*
X81320Y331787D01*
X80034Y330501D01*
X79338Y328820D01*
X79338Y314301D01*
X80034Y312621D01*
X81320Y311335D01*
X82761Y310738D01*
X83362Y310354D01*
X83835Y309698D01*
X84015Y308909D01*
X83873Y308113D01*
X83432Y307435D01*
X82761Y306983D01*
X81320Y306387D01*
X80034Y305101D01*
X79338Y303420D01*
X79338Y288901D01*
X80034Y287221D01*
X81320Y285935D01*
X82761Y285338D01*
X83362Y284954D01*
X83835Y284298D01*
X84015Y283509D01*
X83873Y282713D01*
X83432Y282035D01*
X82761Y281583D01*
X81320Y280987D01*
X80034Y279701D01*
X79338Y278020D01*
X79338Y263501D01*
X80034Y261821D01*
X81320Y260535D01*
X82761Y259938D01*
X83362Y259554D01*
X83835Y258898D01*
X84015Y258109D01*
X83873Y257313D01*
X83432Y256635D01*
X82761Y256183D01*
X81320Y255587D01*
X80034Y254301D01*
X79338Y252620D01*
X79338Y238101D01*
X80034Y236421D01*
X81320Y235135D01*
X82761Y234538D01*
X83362Y234154D01*
X83835Y233498D01*
X84015Y232709D01*
X83873Y231913D01*
X83432Y231235D01*
X82761Y230783D01*
X81320Y230187D01*
X80034Y228901D01*
X79338Y227220D01*
X79338Y221993D01*
X118482Y221993D01*
X118482Y227220D01*
X117786Y228901D01*
X116500Y230187D01*
X115060Y230783D01*
X114459Y231168D01*
X113986Y231824D01*
X113806Y232612D01*
X113948Y233408D01*
X114389Y234086D01*
X115060Y234538D01*
X116500Y235135D01*
X117456Y236091D01*
X118071Y236512D01*
X118861Y236686D01*
X119656Y236537D01*
X120330Y236091D01*
X122341Y234080D01*
X122775Y233435D01*
X122936Y232643D01*
X122936Y198582D01*
X122805Y197864D01*
X122375Y197180D01*
X121711Y196717D01*
X120920Y196550D01*
X120126Y196704D01*
X119161Y197104D01*
X94199Y197104D01*
X88971Y194939D01*
X84969Y190937D01*
X82804Y185709D01*
X82804Y180051D01*
X84969Y174823D01*
X88175Y171617D01*
X88597Y171002D01*
X88770Y170212D01*
X88622Y169417D01*
X88175Y168743D01*
X84969Y165537D01*
X82804Y160309D01*
X82804Y154651D01*
X84969Y149423D01*
X88971Y145421D01*
X94199Y143256D01*
X107439Y143256D01*
X108172Y143119D01*
X108853Y142684D01*
X109310Y142017D01*
X109471Y141224D01*
X109471Y134112D01*
X130261Y134112D01*
X130261Y142066D01*
X129565Y143746D01*
X128279Y145032D01*
X128063Y145122D01*
X127450Y145517D01*
X126982Y146177D01*
X126809Y146967D01*
X126957Y147762D01*
X127404Y148436D01*
X127914Y148947D01*
X128529Y149368D01*
X129319Y149541D01*
X130114Y149393D01*
X130788Y148947D01*
X138384Y141351D01*
X138818Y140706D01*
X138979Y139914D01*
X138979Y122094D01*
X139675Y120414D01*
X140961Y119128D01*
X142642Y118432D01*
X156106Y118432D01*
X157787Y119128D01*
X159073Y120414D01*
X159769Y122094D01*
X159769Y131995D01*
X159906Y132728D01*
X160341Y133409D01*
X161008Y133866D01*
X161801Y134027D01*
X178479Y134027D01*
X179816Y134581D01*
X180529Y134735D01*
X181327Y134599D01*
X182008Y134163D01*
X182465Y133496D01*
X182626Y132704D01*
X182626Y99911D01*
X182489Y99179D01*
X182054Y98497D01*
X181387Y98040D01*
X180594Y97879D01*
X175183Y97879D01*
X173503Y97183D01*
X172217Y95897D01*
X171521Y94217D01*
X171521Y87376D01*
X171384Y86644D01*
X170948Y85962D01*
X170281Y85505D01*
X169489Y85344D01*
X133608Y85344D01*
X132875Y85481D01*
X132194Y85916D01*
X131737Y86583D01*
X131576Y87376D01*
X131576Y114912D01*
X130880Y116592D01*
X129748Y117723D01*
X129327Y118338D01*
X129153Y119128D01*
X129302Y119923D01*
X129462Y120164D01*
X130261Y122094D01*
X130261Y130048D01*
X109471Y130048D01*
X109471Y122094D01*
X110167Y120414D01*
X110771Y119809D01*
X111193Y119195D01*
X111366Y118405D01*
X111218Y117610D01*
X110771Y116936D01*
X110428Y116592D01*
X109831Y115152D01*
X109447Y114551D01*
X108791Y114078D01*
X108002Y113898D01*
X107206Y114040D01*
X106528Y114481D01*
X106076Y115152D01*
X105480Y116592D01*
X104193Y117878D01*
X102513Y118574D01*
X97286Y118574D01*
X97286Y79430D01*
X102513Y79430D01*
X104193Y80126D01*
X105480Y81413D01*
X106076Y82853D01*
X106461Y83454D01*
X107117Y83927D01*
X107905Y84107D01*
X108701Y83965D01*
X109379Y83524D01*
X109831Y82853D01*
X110428Y81413D01*
X111714Y80126D01*
X113394Y79430D01*
X116129Y79430D01*
X116891Y79282D01*
X117565Y78835D01*
X123259Y73141D01*
X125686Y72136D01*
X172176Y72136D01*
X172939Y71987D01*
X173353Y71713D01*
X175183Y70955D01*
X176347Y70955D01*
X177079Y70819D01*
X177760Y70383D01*
X178218Y69716D01*
X178379Y68923D01*
X178379Y47384D01*
X179384Y44957D01*
X184219Y40121D01*
X186646Y39116D01*
X422954Y39116D01*
X425381Y40121D01*
X465339Y80079D01*
X466344Y82506D01*
X466344Y265474D01*
X465339Y267901D01*
X443227Y290013D01*
X442793Y290657D01*
X442632Y291449D01*
X442632Y292018D01*
X441936Y293698D01*
X440650Y294984D01*
X438969Y295680D01*
X407150Y295680D01*
X405470Y294984D01*
X404184Y293698D01*
X403488Y292018D01*
X403488Y277499D01*
X404184Y275819D01*
X405470Y274532D01*
X406911Y273936D01*
X407511Y273551D01*
X407984Y272895D01*
X408164Y272107D01*
X408022Y271311D01*
X407581Y270633D01*
X406911Y270181D01*
X405470Y269584D01*
X404184Y268298D01*
X403488Y266618D01*
X403488Y261390D01*
X442632Y261390D01*
X442632Y267022D01*
X442648Y267022D01*
X442756Y267726D01*
X443181Y268414D01*
X443841Y268882D01*
X444630Y269056D01*
X445426Y268907D01*
X446100Y268461D01*
X452541Y262020D01*
X452975Y261375D01*
X453136Y260583D01*
X453136Y87397D01*
X452987Y86635D01*
X452541Y85960D01*
X419500Y52919D01*
X418855Y52485D01*
X418063Y52324D01*
X193619Y52324D01*
X192886Y52461D01*
X192205Y52896D01*
X191748Y53563D01*
X191587Y54356D01*
X191587Y68079D01*
X191780Y68944D01*
X192263Y69593D01*
X192961Y70002D01*
X193763Y70106D01*
X194542Y69889D01*
X195175Y69386D01*
X195561Y68675D01*
X195588Y68588D01*
X195590Y68587D01*
X195672Y68580D01*
X218339Y68580D01*
X218432Y68589D01*
X218433Y68590D01*
X218440Y68672D01*
X218440Y72995D01*
X218589Y73757D01*
X219035Y74432D01*
X221046Y76442D01*
X221660Y76864D01*
X222450Y77037D01*
X223245Y76889D01*
X223920Y76442D01*
X227357Y73005D01*
X232305Y70955D01*
X237660Y70955D01*
X242608Y73005D01*
X246046Y76442D01*
X246660Y76864D01*
X247450Y77037D01*
X248245Y76889D01*
X248920Y76442D01*
X252357Y73005D01*
X257305Y70955D01*
X258980Y70955D01*
X259743Y70807D01*
X260417Y70360D01*
X267796Y62981D01*
X270223Y61976D01*
X306114Y61976D01*
X308541Y62981D01*
X321758Y76199D01*
X322763Y78626D01*
X322763Y109169D01*
X322912Y109931D01*
X323359Y110605D01*
X324353Y111600D01*
X325049Y113281D01*
X325049Y133099D01*
X324353Y134780D01*
X323067Y136066D01*
X321387Y136762D01*
X310932Y136762D01*
X310587Y136619D01*
X309826Y136465D01*
X309032Y136619D01*
X308687Y136762D01*
X305491Y136762D01*
X305491Y121158D01*
X301427Y121158D01*
X301427Y136762D01*
X298232Y136762D01*
X297887Y136619D01*
X297126Y136465D01*
X296332Y136619D01*
X295987Y136762D01*
X285532Y136762D01*
X285187Y136619D01*
X284426Y136465D01*
X283632Y136619D01*
X283287Y136762D01*
X272832Y136762D01*
X272487Y136619D01*
X271726Y136465D01*
X270932Y136619D01*
X270587Y136762D01*
X260132Y136762D01*
X259787Y136619D01*
X259026Y136465D01*
X258232Y136619D01*
X257887Y136762D01*
X247432Y136762D01*
X247087Y136619D01*
X246326Y136465D01*
X245532Y136619D01*
X245187Y136762D01*
X234732Y136762D01*
X234387Y136619D01*
X233626Y136465D01*
X232832Y136619D01*
X232487Y136762D01*
X222032Y136762D01*
X221687Y136619D01*
X220926Y136465D01*
X220132Y136619D01*
X219787Y136762D01*
X209332Y136762D01*
X208987Y136619D01*
X208226Y136465D01*
X207432Y136619D01*
X207087Y136762D01*
X203891Y136762D01*
X203891Y121158D01*
X199827Y121158D01*
X199827Y136762D01*
X197866Y136762D01*
X197134Y136899D01*
X196452Y137334D01*
X195995Y138001D01*
X195834Y138794D01*
X195834Y310388D01*
X195971Y311121D01*
X196406Y311802D01*
X197073Y312259D01*
X197866Y312420D01*
X204618Y312420D01*
X205351Y312283D01*
X206032Y311848D01*
X206489Y311181D01*
X206650Y310388D01*
X206650Y290892D01*
X207656Y288465D01*
X244505Y251616D01*
X246932Y250610D01*
X333673Y250610D01*
X334405Y250474D01*
X335087Y250038D01*
X335544Y249371D01*
X335705Y248578D01*
X335705Y239287D01*
X336401Y237607D01*
X337687Y236320D01*
X339367Y235624D01*
X359186Y235624D01*
X360867Y236320D01*
X362153Y237607D01*
X362849Y239287D01*
X362849Y249742D01*
X362706Y250087D01*
X362551Y250848D01*
X362706Y251642D01*
X362849Y251987D01*
X362849Y262442D01*
X362706Y262787D01*
X362551Y263548D01*
X362706Y264342D01*
X362849Y264687D01*
X362849Y275142D01*
X362706Y275487D01*
X362551Y276248D01*
X362706Y277042D01*
X362849Y277387D01*
X362849Y278224D01*
X362974Y278926D01*
X363399Y279614D01*
X364058Y280082D01*
X364848Y280256D01*
X365643Y280108D01*
X366318Y279661D01*
X373801Y272178D01*
X374235Y271533D01*
X374396Y270741D01*
X374396Y252686D01*
X375401Y250259D01*
X397301Y228360D01*
X399728Y227354D01*
X401859Y227354D01*
X402606Y227212D01*
X403284Y226771D01*
X403736Y226100D01*
X404184Y225019D01*
X405470Y223732D01*
X406911Y223136D01*
X407511Y222751D01*
X407984Y222095D01*
X408164Y221307D01*
X408022Y220511D01*
X407581Y219833D01*
X406911Y219381D01*
X405470Y218784D01*
X404184Y217498D01*
X403488Y215818D01*
X403488Y215050D01*
X403351Y214318D01*
X402915Y213637D01*
X402248Y213179D01*
X401456Y213018D01*
X364881Y213018D01*
X364148Y213155D01*
X363467Y213591D01*
X363010Y214258D01*
X362849Y215050D01*
X362849Y224342D01*
X362153Y226022D01*
X360867Y227308D01*
X359186Y228004D01*
X339367Y228004D01*
X337687Y227308D01*
X336401Y226022D01*
X335705Y224342D01*
X335705Y213887D01*
X335848Y213542D01*
X336002Y212781D01*
X335848Y211987D01*
X335705Y211642D01*
X335705Y201187D01*
X335848Y200842D01*
X336002Y200081D01*
X335848Y199287D01*
X335705Y198942D01*
X335705Y188487D01*
X335848Y188142D01*
X336002Y187381D01*
X335848Y186587D01*
X335705Y186242D01*
X335705Y175787D01*
X335848Y175442D01*
X336002Y174681D01*
X335848Y173887D01*
X335705Y173542D01*
X335705Y163087D01*
X335848Y162742D01*
X336002Y161981D01*
X335848Y161187D01*
X335705Y160842D01*
X335705Y150387D01*
X335848Y150042D01*
X336002Y149281D01*
X335848Y148487D01*
X335705Y148142D01*
X335705Y137687D01*
X336401Y136007D01*
X337687Y134720D01*
X339367Y134024D01*
X340641Y134024D01*
X341373Y133888D01*
X342055Y133452D01*
X342512Y132785D01*
X342673Y131992D01*
X342673Y96754D01*
X343678Y94326D01*
X349453Y88552D01*
X349887Y87907D01*
X350048Y87115D01*
X350048Y76815D01*
X350744Y75134D01*
X352030Y73848D01*
X353711Y73152D01*
X371529Y73152D01*
X373210Y73848D01*
X374496Y75134D01*
X375192Y76815D01*
X375192Y92633D01*
X374496Y94314D01*
X373210Y95600D01*
X371529Y96296D01*
X361229Y96296D01*
X360467Y96445D01*
X359792Y96891D01*
X356476Y100208D01*
X356042Y100852D01*
X355881Y101644D01*
X355881Y131992D01*
X356017Y132725D01*
X356453Y133406D01*
X357120Y133863D01*
X357913Y134024D01*
X359186Y134024D01*
X360867Y134720D01*
X362153Y136007D01*
X362849Y137687D01*
X362849Y141066D01*
X362974Y141768D01*
X363399Y142456D01*
X364058Y142924D01*
X364848Y143098D01*
X365643Y142950D01*
X366318Y142503D01*
X383961Y124860D01*
X384395Y124215D01*
X384556Y123423D01*
X384556Y110446D01*
X385561Y108019D01*
X392403Y101177D01*
X394830Y100172D01*
X401934Y100172D01*
X402682Y100030D01*
X403359Y99588D01*
X403811Y98918D01*
X404184Y98019D01*
X405470Y96732D01*
X407150Y96036D01*
X438969Y96036D01*
X440650Y96732D01*
X441936Y98019D01*
X442632Y99699D01*
X442632Y114218D01*
X441936Y115898D01*
X440650Y117184D01*
X439209Y117781D01*
X438608Y118165D01*
X438135Y118821D01*
X437955Y119610D01*
X438097Y120406D01*
X438538Y121084D01*
X439209Y121536D01*
X440650Y122132D01*
X441936Y123419D01*
X442632Y125099D01*
X442632Y139618D01*
X441936Y141298D01*
X440650Y142584D01*
X439209Y143181D01*
X438608Y143565D01*
X438135Y144221D01*
X437955Y145010D01*
X438097Y145806D01*
X438538Y146484D01*
X439209Y146936D01*
X440650Y147532D01*
X441936Y148819D01*
X442632Y150499D01*
X442632Y165018D01*
X441936Y166698D01*
X440650Y167984D01*
X439209Y168581D01*
X438608Y168965D01*
X438135Y169621D01*
X437955Y170410D01*
X438097Y171206D01*
X438538Y171884D01*
X439209Y172336D01*
X440650Y172932D01*
X441936Y174219D01*
X442632Y175899D01*
X442632Y190418D01*
X441936Y192098D01*
X440650Y193384D01*
X439209Y193981D01*
X438608Y194365D01*
X438135Y195021D01*
X437955Y195810D01*
X438097Y196606D01*
X438538Y197284D01*
X439209Y197736D01*
X440650Y198332D01*
X441936Y199619D01*
X442632Y201299D01*
X442632Y215818D01*
X441936Y217498D01*
X440650Y218784D01*
X439209Y219381D01*
X438608Y219765D01*
X438135Y220421D01*
X437955Y221210D01*
X438097Y222006D01*
X438538Y222684D01*
X439209Y223136D01*
X440650Y223732D01*
X441936Y225019D01*
X442632Y226699D01*
X442632Y241218D01*
X441936Y242898D01*
X440650Y244184D01*
X439209Y244781D01*
X438608Y245165D01*
X438135Y245821D01*
X437955Y246610D01*
X438097Y247406D01*
X438538Y248084D01*
X439209Y248536D01*
X440650Y249132D01*
X441936Y250419D01*
X442632Y252099D01*
X442632Y257326D01*
X403488Y257326D01*
X403488Y252099D01*
X404184Y250419D01*
X405470Y249132D01*
X406911Y248536D01*
X407511Y248151D01*
X407984Y247495D01*
X408164Y246707D01*
X408022Y245911D01*
X407581Y245233D01*
X406911Y244781D01*
X405470Y244184D01*
X404249Y242964D01*
X403635Y242542D01*
X402845Y242369D01*
X402050Y242517D01*
X401376Y242964D01*
X388199Y256140D01*
X387765Y256785D01*
X387604Y257577D01*
X387604Y275632D01*
X386599Y278059D01*
X363491Y301166D01*
X363467Y301182D01*
X363010Y301849D01*
X362849Y302642D01*
X362849Y305982D01*
X335705Y305982D01*
X335705Y302787D01*
X335848Y302442D01*
X336002Y301681D01*
X335848Y300887D01*
X335705Y300542D01*
X335705Y290087D01*
X335848Y289742D01*
X336002Y288981D01*
X335848Y288187D01*
X335705Y287842D01*
X335705Y278550D01*
X335568Y277818D01*
X335132Y277137D01*
X334465Y276679D01*
X333673Y276518D01*
X254363Y276518D01*
X253600Y276667D01*
X252926Y277114D01*
X231204Y298835D01*
X230770Y299480D01*
X230609Y300272D01*
X230609Y310388D01*
X230746Y311121D01*
X231181Y311802D01*
X231848Y312259D01*
X232641Y312420D01*
X333673Y312420D01*
X334405Y312283D01*
X335087Y311848D01*
X335544Y311181D01*
X335705Y310388D01*
X335705Y310046D01*
X362849Y310046D01*
X362849Y313242D01*
X362153Y314922D01*
X360867Y316208D01*
X359394Y316818D01*
X358758Y317236D01*
X358301Y317903D01*
X358140Y318696D01*
X358140Y384048D01*
X358277Y384781D01*
X358712Y385462D01*
X359379Y385919D01*
X360172Y386080D01*
X516128Y386080D01*
X516861Y385943D01*
X517542Y385508D01*
X517999Y384841D01*
X518160Y384048D01*
X518160Y333483D01*
X518023Y332750D01*
X517588Y332069D01*
X516921Y331612D01*
X516128Y331451D01*
X488521Y331451D01*
X486840Y330755D01*
X485554Y329469D01*
X484858Y327788D01*
X484858Y313270D01*
X485554Y311589D01*
X486840Y310303D01*
X488521Y309607D01*
X516128Y309607D01*
X516861Y309470D01*
X517542Y309035D01*
X517999Y308368D01*
X518160Y307575D01*
X518160Y84093D01*
X518023Y83361D01*
X517588Y82679D01*
X516921Y82222D01*
X516128Y82061D01*
X488521Y82061D01*
X486840Y81365D01*
X485554Y80079D01*
X484858Y78398D01*
X484858Y63880D01*
X485554Y62199D01*
X486840Y60913D01*
X488521Y60217D01*
X516128Y60217D01*
X516861Y60080D01*
X517542Y59645D01*
X517999Y58978D01*
X518160Y58185D01*
X518160Y7112D01*
X518023Y6380D01*
X517588Y5698D01*
X516921Y5241D01*
X516128Y5080D01*
X359410Y5080D01*
X358692Y5211D01*
X358008Y5641D01*
X357545Y6305D01*
X357378Y7096D01*
X357533Y7890D01*
X358034Y9100D01*
X358034Y11474D01*
X357778Y12092D01*
X357623Y12853D01*
X357778Y13647D01*
X358034Y14264D01*
X358034Y18765D01*
X358034Y18765D01*
X358034Y19695D01*
X355512Y24063D01*
X351144Y26585D01*
X346100Y26585D01*
X345508Y26244D01*
X344541Y25972D01*
X343745Y26114D01*
X343067Y26555D01*
X342615Y27226D01*
X341813Y29162D01*
X340134Y30841D01*
X337940Y31750D01*
X335565Y31750D01*
X333371Y30841D01*
X331692Y29162D01*
X331145Y27840D01*
X330727Y27204D01*
X330060Y26746D01*
X329267Y26585D01*
X327932Y26585D01*
X326454Y25973D01*
X325693Y25818D01*
X324899Y25973D01*
X323421Y26585D01*
X321555Y26585D01*
X320808Y26728D01*
X320130Y27169D01*
X319678Y27840D01*
X319130Y29162D01*
X317451Y30841D01*
X315257Y31750D01*
X312882Y31750D01*
X310689Y30841D01*
X309009Y29162D01*
X308353Y27577D01*
X308098Y27131D01*
X307492Y26595D01*
X304445Y24836D01*
X303986Y24642D01*
X303180Y24579D01*
X302413Y24836D01*
X299384Y26585D01*
X294340Y26585D01*
X294145Y26473D01*
X293178Y26201D01*
X292382Y26343D01*
X291704Y26784D01*
X291252Y27455D01*
X291226Y27518D01*
X291132Y27803D01*
X290988Y28381D01*
X290867Y28543D01*
X290622Y28975D01*
X290545Y29162D01*
X290124Y29583D01*
X289928Y29810D01*
X289574Y30289D01*
X289400Y30393D01*
X289009Y30698D01*
X288866Y30841D01*
X288316Y31069D01*
X288048Y31204D01*
X287538Y31510D01*
X287337Y31540D01*
X286859Y31673D01*
X286672Y31750D01*
X286077Y31750D01*
X285778Y31772D01*
X285189Y31860D01*
X284993Y31811D01*
X284500Y31750D01*
X284297Y31750D01*
X283747Y31522D01*
X283463Y31428D01*
X282885Y31284D01*
X282723Y31163D01*
X282290Y30919D01*
X282104Y30841D01*
X281757Y30495D01*
X281142Y30073D01*
X280352Y29900D01*
X279557Y30048D01*
X278883Y30495D01*
X278537Y30841D01*
X278350Y30919D01*
X277918Y31163D01*
X277755Y31284D01*
X277177Y31428D01*
X276893Y31522D01*
X276343Y31750D01*
X276140Y31750D01*
X275647Y31811D01*
X275451Y31860D01*
X274862Y31772D01*
X274563Y31750D01*
X273968Y31750D01*
X273781Y31673D01*
X273303Y31540D01*
X273102Y31510D01*
X272592Y31204D01*
X272324Y31069D01*
X271774Y30841D01*
X271631Y30698D01*
X271240Y30393D01*
X271066Y30289D01*
X270712Y29810D01*
X270516Y29583D01*
X270095Y29162D01*
X270018Y28975D01*
X269773Y28543D01*
X269653Y28381D01*
X269508Y27803D01*
X269414Y27518D01*
X269227Y27067D01*
X268843Y26466D01*
X268187Y25993D01*
X267399Y25813D01*
X266602Y25955D01*
X265925Y26396D01*
X265473Y27067D01*
X264605Y29162D01*
X262926Y30841D01*
X260732Y31750D01*
X249749Y31750D01*
X247556Y30841D01*
X245876Y29162D01*
X245329Y27840D01*
X244911Y27204D01*
X244244Y26746D01*
X243451Y26585D01*
X238834Y26585D01*
X238087Y26728D01*
X237409Y27169D01*
X236957Y27840D01*
X236409Y29162D01*
X234730Y30841D01*
X232536Y31750D01*
X226719Y31750D01*
X224525Y30841D01*
X222846Y29162D01*
X222124Y27420D01*
X221739Y26819D01*
X221084Y26346D01*
X220295Y26166D01*
X219499Y26308D01*
X218821Y26749D01*
X218369Y27420D01*
X217647Y29162D01*
X215968Y30841D01*
X213774Y31750D01*
X202792Y31750D01*
X201521Y31224D01*
X200760Y31069D01*
X199966Y31224D01*
X198695Y31750D01*
X195460Y31750D01*
X194685Y31429D01*
X193923Y31274D01*
X193129Y31429D01*
X192354Y31750D01*
X183093Y31750D01*
X180900Y30841D01*
X179220Y29162D01*
X178312Y26968D01*
X178312Y9100D01*
X178813Y7890D01*
X178967Y7177D01*
X178831Y6380D01*
X178395Y5698D01*
X177728Y5241D01*
X176936Y5080D01*
X167464Y5080D01*
X166731Y5217D01*
X166050Y5652D01*
X165592Y6319D01*
X165432Y7112D01*
X165432Y33449D01*
X164736Y35130D01*
X163449Y36416D01*
X161769Y37112D01*
X147250Y37112D01*
X145570Y36416D01*
X144284Y35130D01*
X143588Y33449D01*
X143588Y7112D01*
X143451Y6380D01*
X143015Y5698D01*
X142348Y5241D01*
G37*
%LPC*%
G36*
X402743Y326604D02*
X402927Y326574D01*
X403987Y326640D01*
X404114Y326644D01*
X440633Y326644D01*
X442873Y327572D01*
X444588Y329287D01*
X445078Y330470D01*
X445496Y331106D01*
X446163Y331563D01*
X446955Y331724D01*
X448253Y331724D01*
X450493Y332652D01*
X452208Y334367D01*
X453136Y336607D01*
X453136Y375869D01*
X452208Y378109D01*
X450493Y379824D01*
X448253Y380752D01*
X445827Y380752D01*
X443587Y379824D01*
X443196Y379433D01*
X442567Y379005D01*
X441775Y378838D01*
X440982Y378993D01*
X440537Y379177D01*
X440353Y379208D01*
X439293Y379141D01*
X439166Y379137D01*
X438104Y379137D01*
X437922Y379095D01*
X436968Y378628D01*
X436853Y378576D01*
X435871Y378170D01*
X435720Y378062D01*
X435017Y377265D01*
X434930Y377173D01*
X434179Y376421D01*
X433953Y376059D01*
X399457Y336964D01*
X399370Y336871D01*
X398619Y336120D01*
X398520Y335962D01*
X398176Y334957D01*
X398131Y334838D01*
X397724Y333857D01*
X397694Y333673D01*
X397760Y332613D01*
X397764Y332486D01*
X397764Y331424D01*
X397806Y331242D01*
X398273Y330288D01*
X398325Y330173D01*
X398732Y329191D01*
X398840Y329040D01*
X399636Y328337D01*
X399729Y328250D01*
X400480Y327499D01*
X400638Y327400D01*
X401643Y327056D01*
X401762Y327011D01*
X402743Y326604D01*
G37*
G36*
X100942Y209039D02*
X114820Y209039D01*
X116500Y209735D01*
X117786Y211021D01*
X118482Y212701D01*
X118482Y217929D01*
X100942Y217929D01*
X100942Y209039D01*
G37*
G36*
X83001Y209039D02*
X96878Y209039D01*
X96878Y217929D01*
X79338Y217929D01*
X79338Y212701D01*
X80034Y211021D01*
X81320Y209735D01*
X83001Y209039D01*
G37*
%LPD*%
G36*
X38642Y195741D02*
X37850Y195580D01*
X4572Y195580D01*
X3840Y195717D01*
X3158Y196152D01*
X2701Y196819D01*
X2540Y197612D01*
X2540Y344934D01*
X2677Y345667D01*
X3112Y346348D01*
X3779Y346805D01*
X4572Y346966D01*
X33171Y346966D01*
X34064Y347859D01*
X34064Y361821D01*
X33171Y362714D01*
X4572Y362714D01*
X3840Y362851D01*
X3158Y363286D01*
X2701Y363953D01*
X2540Y364746D01*
X2540Y386588D01*
X2677Y387321D01*
X3112Y388002D01*
X3779Y388459D01*
X4572Y388620D01*
X152908Y388620D01*
X153641Y388483D01*
X154322Y388048D01*
X154779Y387381D01*
X154940Y386588D01*
X154940Y379984D01*
X154803Y379252D01*
X154368Y378570D01*
X153701Y378113D01*
X152908Y377952D01*
X80371Y377952D01*
X78690Y377256D01*
X40578Y339143D01*
X39882Y337463D01*
X39882Y197612D01*
X39745Y196880D01*
X39309Y196198D01*
X38642Y195741D01*
G37*
G36*
X65991Y195741D02*
X65198Y195580D01*
X61996Y195580D01*
X61264Y195717D01*
X60582Y196152D01*
X60125Y196819D01*
X59964Y197612D01*
X59964Y329856D01*
X60113Y330619D01*
X60559Y331293D01*
X67651Y338385D01*
X68236Y338793D01*
X69023Y338979D01*
X69821Y338843D01*
X70502Y338408D01*
X70959Y337741D01*
X71120Y336948D01*
X71120Y201502D01*
X70971Y200739D01*
X70525Y200065D01*
X66635Y196175D01*
X65991Y195741D01*
G37*
D10*
X184281Y10287D02*
X184281Y25781D01*
X191167Y25781D01*
X191167Y18895D02*
X184281Y18895D01*
X197077Y20616D02*
X197077Y10287D01*
X196647Y24920D02*
X196647Y25781D01*
X197508Y25781D01*
X197508Y24920D01*
X196647Y24920D01*
X203979Y10287D02*
X209144Y10287D01*
X209259Y10289D01*
X209374Y10295D01*
X209489Y10304D01*
X209603Y10318D01*
X209717Y10335D01*
X209830Y10356D01*
X209942Y10381D01*
X210054Y10409D01*
X210164Y10442D01*
X210273Y10478D01*
X210381Y10517D01*
X210488Y10560D01*
X210593Y10607D01*
X210697Y10657D01*
X210799Y10711D01*
X210899Y10768D01*
X210997Y10828D01*
X211093Y10891D01*
X211186Y10958D01*
X211278Y11028D01*
X211367Y11101D01*
X211454Y11177D01*
X211538Y11255D01*
X211619Y11336D01*
X211698Y11421D01*
X211773Y11507D01*
X211846Y11596D01*
X211916Y11688D01*
X211983Y11781D01*
X212046Y11877D01*
X212106Y11975D01*
X212163Y12075D01*
X212217Y12177D01*
X212267Y12281D01*
X212314Y12386D01*
X212357Y12493D01*
X212397Y12601D01*
X212432Y12710D01*
X212465Y12820D01*
X212493Y12932D01*
X212518Y13044D01*
X212539Y13157D01*
X212556Y13271D01*
X212570Y13385D01*
X212579Y13500D01*
X212585Y13615D01*
X212587Y13730D01*
X212587Y15452D01*
X212585Y15567D01*
X212579Y15682D01*
X212570Y15797D01*
X212556Y15911D01*
X212539Y16025D01*
X212518Y16138D01*
X212493Y16250D01*
X212465Y16362D01*
X212432Y16472D01*
X212396Y16581D01*
X212357Y16689D01*
X212314Y16796D01*
X212267Y16901D01*
X212217Y17005D01*
X212163Y17107D01*
X212106Y17207D01*
X212046Y17305D01*
X211983Y17401D01*
X211916Y17494D01*
X211846Y17586D01*
X211773Y17675D01*
X211698Y17762D01*
X211619Y17846D01*
X211538Y17927D01*
X211454Y18006D01*
X211367Y18081D01*
X211278Y18154D01*
X211186Y18224D01*
X211093Y18291D01*
X210997Y18354D01*
X210899Y18414D01*
X210799Y18471D01*
X210697Y18525D01*
X210593Y18575D01*
X210488Y18622D01*
X210381Y18665D01*
X210273Y18704D01*
X210164Y18740D01*
X210054Y18773D01*
X209942Y18801D01*
X209830Y18826D01*
X209717Y18847D01*
X209603Y18864D01*
X209489Y18878D01*
X209374Y18887D01*
X209259Y18893D01*
X209144Y18895D01*
X203979Y18895D01*
X203979Y25781D01*
X212587Y25781D01*
X229627Y25781D02*
X229627Y10287D01*
X227906Y10287D02*
X231349Y10287D01*
X231349Y25781D02*
X227906Y25781D01*
X237924Y17173D02*
X237924Y13730D01*
X237924Y17173D02*
X237926Y17289D01*
X237932Y17405D01*
X237942Y17521D01*
X237955Y17637D01*
X237973Y17752D01*
X237994Y17866D01*
X238020Y17980D01*
X238049Y18092D01*
X238082Y18204D01*
X238119Y18314D01*
X238159Y18423D01*
X238203Y18531D01*
X238251Y18637D01*
X238302Y18741D01*
X238357Y18844D01*
X238415Y18945D01*
X238476Y19043D01*
X238541Y19140D01*
X238609Y19234D01*
X238680Y19326D01*
X238755Y19416D01*
X238832Y19503D01*
X238912Y19587D01*
X238995Y19668D01*
X239081Y19747D01*
X239169Y19823D01*
X239260Y19896D01*
X239353Y19965D01*
X239448Y20032D01*
X239546Y20095D01*
X239646Y20155D01*
X239747Y20211D01*
X239851Y20264D01*
X239956Y20314D01*
X240063Y20359D01*
X240171Y20402D01*
X240281Y20440D01*
X240392Y20475D01*
X240504Y20506D01*
X240617Y20533D01*
X240731Y20557D01*
X240846Y20576D01*
X240961Y20592D01*
X241077Y20604D01*
X241193Y20612D01*
X241309Y20616D01*
X241425Y20616D01*
X241541Y20612D01*
X241657Y20604D01*
X241773Y20592D01*
X241888Y20576D01*
X242003Y20557D01*
X242117Y20533D01*
X242230Y20506D01*
X242342Y20475D01*
X242453Y20440D01*
X242563Y20402D01*
X242671Y20359D01*
X242778Y20314D01*
X242883Y20264D01*
X242987Y20211D01*
X243089Y20155D01*
X243188Y20095D01*
X243286Y20032D01*
X243381Y19965D01*
X243474Y19896D01*
X243565Y19823D01*
X243653Y19747D01*
X243739Y19668D01*
X243822Y19587D01*
X243902Y19503D01*
X243979Y19416D01*
X244054Y19326D01*
X244125Y19234D01*
X244193Y19140D01*
X244258Y19043D01*
X244319Y18945D01*
X244377Y18844D01*
X244432Y18741D01*
X244483Y18637D01*
X244531Y18531D01*
X244575Y18423D01*
X244615Y18314D01*
X244652Y18204D01*
X244685Y18092D01*
X244714Y17980D01*
X244740Y17866D01*
X244761Y17752D01*
X244779Y17637D01*
X244792Y17521D01*
X244802Y17405D01*
X244808Y17289D01*
X244810Y17173D01*
X244810Y13730D01*
X244808Y13614D01*
X244802Y13498D01*
X244792Y13382D01*
X244779Y13266D01*
X244761Y13151D01*
X244740Y13037D01*
X244714Y12923D01*
X244685Y12811D01*
X244652Y12699D01*
X244615Y12589D01*
X244575Y12480D01*
X244531Y12372D01*
X244483Y12266D01*
X244432Y12162D01*
X244377Y12059D01*
X244319Y11958D01*
X244258Y11860D01*
X244193Y11763D01*
X244125Y11669D01*
X244054Y11577D01*
X243979Y11487D01*
X243902Y11400D01*
X243822Y11316D01*
X243739Y11235D01*
X243653Y11156D01*
X243565Y11080D01*
X243474Y11007D01*
X243381Y10938D01*
X243286Y10871D01*
X243188Y10808D01*
X243088Y10748D01*
X242987Y10692D01*
X242883Y10639D01*
X242778Y10589D01*
X242671Y10544D01*
X242563Y10501D01*
X242453Y10463D01*
X242342Y10428D01*
X242230Y10397D01*
X242117Y10370D01*
X242003Y10346D01*
X241888Y10327D01*
X241773Y10311D01*
X241657Y10299D01*
X241541Y10291D01*
X241425Y10287D01*
X241309Y10287D01*
X241193Y10291D01*
X241077Y10299D01*
X240961Y10311D01*
X240846Y10327D01*
X240731Y10346D01*
X240617Y10370D01*
X240504Y10397D01*
X240392Y10428D01*
X240281Y10463D01*
X240171Y10501D01*
X240063Y10544D01*
X239956Y10589D01*
X239851Y10639D01*
X239747Y10692D01*
X239646Y10748D01*
X239546Y10808D01*
X239448Y10871D01*
X239353Y10938D01*
X239260Y11007D01*
X239169Y11080D01*
X239081Y11156D01*
X238995Y11235D01*
X238912Y11316D01*
X238832Y11400D01*
X238755Y11487D01*
X238680Y11577D01*
X238609Y11669D01*
X238541Y11763D01*
X238476Y11860D01*
X238415Y11958D01*
X238357Y12059D01*
X238302Y12162D01*
X238251Y12266D01*
X238203Y12372D01*
X238159Y12480D01*
X238119Y12589D01*
X238082Y12699D01*
X238049Y12811D01*
X238020Y12923D01*
X237994Y13037D01*
X237973Y13151D01*
X237955Y13266D01*
X237942Y13382D01*
X237932Y13498D01*
X237926Y13614D01*
X237924Y13730D01*
X255241Y10287D02*
X255241Y25781D01*
X259544Y25781D02*
X250937Y25781D01*
X275155Y25781D02*
X275155Y10287D01*
X280320Y17173D02*
X275155Y25781D01*
X280320Y17173D02*
X285485Y25781D01*
X285485Y10287D01*
X293419Y13730D02*
X293419Y17173D01*
X293421Y17289D01*
X293427Y17405D01*
X293437Y17521D01*
X293450Y17637D01*
X293468Y17752D01*
X293489Y17866D01*
X293515Y17980D01*
X293544Y18092D01*
X293577Y18204D01*
X293614Y18314D01*
X293654Y18423D01*
X293698Y18531D01*
X293746Y18637D01*
X293797Y18741D01*
X293852Y18844D01*
X293910Y18945D01*
X293971Y19043D01*
X294036Y19140D01*
X294104Y19234D01*
X294175Y19326D01*
X294250Y19416D01*
X294327Y19503D01*
X294407Y19587D01*
X294490Y19668D01*
X294576Y19747D01*
X294664Y19823D01*
X294755Y19896D01*
X294848Y19965D01*
X294943Y20032D01*
X295041Y20095D01*
X295141Y20155D01*
X295242Y20211D01*
X295346Y20264D01*
X295451Y20314D01*
X295558Y20359D01*
X295666Y20402D01*
X295776Y20440D01*
X295887Y20475D01*
X295999Y20506D01*
X296112Y20533D01*
X296226Y20557D01*
X296341Y20576D01*
X296456Y20592D01*
X296572Y20604D01*
X296688Y20612D01*
X296804Y20616D01*
X296920Y20616D01*
X297036Y20612D01*
X297152Y20604D01*
X297268Y20592D01*
X297383Y20576D01*
X297498Y20557D01*
X297612Y20533D01*
X297725Y20506D01*
X297837Y20475D01*
X297948Y20440D01*
X298058Y20402D01*
X298166Y20359D01*
X298273Y20314D01*
X298378Y20264D01*
X298482Y20211D01*
X298584Y20155D01*
X298683Y20095D01*
X298781Y20032D01*
X298876Y19965D01*
X298969Y19896D01*
X299060Y19823D01*
X299148Y19747D01*
X299234Y19668D01*
X299317Y19587D01*
X299397Y19503D01*
X299474Y19416D01*
X299549Y19326D01*
X299620Y19234D01*
X299688Y19140D01*
X299753Y19043D01*
X299814Y18945D01*
X299872Y18844D01*
X299927Y18741D01*
X299978Y18637D01*
X300026Y18531D01*
X300070Y18423D01*
X300110Y18314D01*
X300147Y18204D01*
X300180Y18092D01*
X300209Y17980D01*
X300235Y17866D01*
X300256Y17752D01*
X300274Y17637D01*
X300287Y17521D01*
X300297Y17405D01*
X300303Y17289D01*
X300305Y17173D01*
X300305Y13730D01*
X300303Y13614D01*
X300297Y13498D01*
X300287Y13382D01*
X300274Y13266D01*
X300256Y13151D01*
X300235Y13037D01*
X300209Y12923D01*
X300180Y12811D01*
X300147Y12699D01*
X300110Y12589D01*
X300070Y12480D01*
X300026Y12372D01*
X299978Y12266D01*
X299927Y12162D01*
X299872Y12059D01*
X299814Y11958D01*
X299753Y11860D01*
X299688Y11763D01*
X299620Y11669D01*
X299549Y11577D01*
X299474Y11487D01*
X299397Y11400D01*
X299317Y11316D01*
X299234Y11235D01*
X299148Y11156D01*
X299060Y11080D01*
X298969Y11007D01*
X298876Y10938D01*
X298781Y10871D01*
X298683Y10808D01*
X298584Y10748D01*
X298482Y10692D01*
X298378Y10639D01*
X298273Y10589D01*
X298166Y10544D01*
X298058Y10501D01*
X297948Y10463D01*
X297837Y10428D01*
X297725Y10397D01*
X297612Y10370D01*
X297498Y10346D01*
X297383Y10327D01*
X297268Y10311D01*
X297152Y10299D01*
X297036Y10291D01*
X296920Y10287D01*
X296804Y10287D01*
X296688Y10291D01*
X296572Y10299D01*
X296456Y10311D01*
X296341Y10327D01*
X296226Y10346D01*
X296112Y10370D01*
X295999Y10397D01*
X295887Y10428D01*
X295776Y10463D01*
X295666Y10501D01*
X295558Y10544D01*
X295451Y10589D01*
X295346Y10639D01*
X295242Y10692D01*
X295141Y10748D01*
X295041Y10808D01*
X294943Y10871D01*
X294848Y10938D01*
X294755Y11007D01*
X294664Y11080D01*
X294576Y11156D01*
X294490Y11235D01*
X294407Y11316D01*
X294327Y11400D01*
X294250Y11487D01*
X294175Y11577D01*
X294104Y11669D01*
X294036Y11763D01*
X293971Y11860D01*
X293910Y11958D01*
X293852Y12059D01*
X293797Y12162D01*
X293746Y12266D01*
X293698Y12372D01*
X293654Y12480D01*
X293614Y12589D01*
X293577Y12699D01*
X293544Y12811D01*
X293515Y12923D01*
X293489Y13037D01*
X293468Y13151D01*
X293450Y13266D01*
X293437Y13382D01*
X293427Y13498D01*
X293421Y13614D01*
X293419Y13730D01*
X314070Y10287D02*
X314070Y25781D01*
X314070Y10287D02*
X309766Y10287D01*
X309667Y10289D01*
X309568Y10295D01*
X309470Y10304D01*
X309372Y10317D01*
X309274Y10334D01*
X309178Y10355D01*
X309082Y10379D01*
X308987Y10407D01*
X308893Y10439D01*
X308801Y10474D01*
X308710Y10513D01*
X308620Y10555D01*
X308533Y10601D01*
X308447Y10650D01*
X308363Y10702D01*
X308281Y10757D01*
X308201Y10816D01*
X308123Y10877D01*
X308048Y10941D01*
X307976Y11009D01*
X307906Y11079D01*
X307838Y11151D01*
X307774Y11226D01*
X307713Y11304D01*
X307654Y11384D01*
X307599Y11466D01*
X307547Y11550D01*
X307498Y11636D01*
X307452Y11723D01*
X307410Y11813D01*
X307371Y11904D01*
X307336Y11996D01*
X307304Y12090D01*
X307276Y12185D01*
X307252Y12281D01*
X307231Y12377D01*
X307214Y12475D01*
X307201Y12573D01*
X307192Y12671D01*
X307186Y12770D01*
X307184Y12869D01*
X307183Y12869D02*
X307183Y18034D01*
X307184Y18034D02*
X307186Y18133D01*
X307192Y18232D01*
X307201Y18330D01*
X307214Y18428D01*
X307231Y18526D01*
X307252Y18622D01*
X307276Y18718D01*
X307304Y18813D01*
X307336Y18907D01*
X307371Y18999D01*
X307410Y19090D01*
X307452Y19180D01*
X307498Y19267D01*
X307547Y19353D01*
X307599Y19437D01*
X307654Y19519D01*
X307713Y19599D01*
X307774Y19677D01*
X307838Y19752D01*
X307906Y19824D01*
X307976Y19894D01*
X308048Y19962D01*
X308123Y20026D01*
X308201Y20087D01*
X308281Y20146D01*
X308363Y20201D01*
X308447Y20253D01*
X308533Y20302D01*
X308620Y20348D01*
X308710Y20390D01*
X308801Y20429D01*
X308893Y20464D01*
X308987Y20496D01*
X309082Y20524D01*
X309178Y20548D01*
X309274Y20569D01*
X309372Y20586D01*
X309470Y20599D01*
X309568Y20608D01*
X309667Y20614D01*
X309766Y20616D01*
X314070Y20616D01*
X322233Y20616D02*
X322233Y12869D01*
X322234Y12869D02*
X322236Y12770D01*
X322242Y12671D01*
X322251Y12573D01*
X322264Y12475D01*
X322281Y12377D01*
X322302Y12281D01*
X322326Y12185D01*
X322354Y12090D01*
X322386Y11996D01*
X322421Y11904D01*
X322460Y11813D01*
X322502Y11723D01*
X322548Y11636D01*
X322597Y11550D01*
X322649Y11466D01*
X322704Y11384D01*
X322763Y11304D01*
X322824Y11226D01*
X322888Y11151D01*
X322956Y11079D01*
X323026Y11009D01*
X323098Y10941D01*
X323173Y10877D01*
X323251Y10816D01*
X323331Y10757D01*
X323413Y10702D01*
X323497Y10650D01*
X323583Y10601D01*
X323670Y10555D01*
X323760Y10513D01*
X323851Y10474D01*
X323943Y10439D01*
X324037Y10407D01*
X324132Y10379D01*
X324228Y10355D01*
X324324Y10334D01*
X324422Y10317D01*
X324520Y10304D01*
X324618Y10295D01*
X324717Y10289D01*
X324816Y10287D01*
X329120Y10287D01*
X329120Y20616D01*
X336753Y25781D02*
X336753Y12869D01*
X336755Y12770D01*
X336761Y12671D01*
X336770Y12573D01*
X336783Y12475D01*
X336800Y12377D01*
X336821Y12281D01*
X336845Y12185D01*
X336873Y12090D01*
X336905Y11996D01*
X336940Y11904D01*
X336979Y11813D01*
X337021Y11723D01*
X337067Y11636D01*
X337116Y11550D01*
X337168Y11466D01*
X337223Y11384D01*
X337282Y11304D01*
X337343Y11226D01*
X337407Y11151D01*
X337475Y11079D01*
X337545Y11009D01*
X337617Y10941D01*
X337692Y10877D01*
X337770Y10816D01*
X337850Y10757D01*
X337932Y10702D01*
X338016Y10650D01*
X338102Y10601D01*
X338189Y10555D01*
X338279Y10513D01*
X338370Y10474D01*
X338462Y10439D01*
X338556Y10407D01*
X338651Y10379D01*
X338747Y10355D01*
X338843Y10334D01*
X338941Y10317D01*
X339039Y10304D01*
X339137Y10295D01*
X339236Y10289D01*
X339335Y10287D01*
X347761Y10287D02*
X352065Y10287D01*
X347761Y10287D02*
X347662Y10289D01*
X347563Y10295D01*
X347465Y10304D01*
X347367Y10317D01*
X347269Y10334D01*
X347173Y10355D01*
X347077Y10379D01*
X346982Y10407D01*
X346888Y10439D01*
X346796Y10474D01*
X346705Y10513D01*
X346615Y10555D01*
X346528Y10601D01*
X346442Y10650D01*
X346358Y10702D01*
X346276Y10757D01*
X346196Y10816D01*
X346118Y10877D01*
X346043Y10941D01*
X345971Y11009D01*
X345901Y11079D01*
X345833Y11151D01*
X345769Y11226D01*
X345708Y11304D01*
X345649Y11384D01*
X345594Y11466D01*
X345542Y11550D01*
X345493Y11636D01*
X345447Y11723D01*
X345405Y11813D01*
X345366Y11904D01*
X345331Y11996D01*
X345299Y12090D01*
X345271Y12185D01*
X345247Y12281D01*
X345226Y12377D01*
X345209Y12475D01*
X345196Y12573D01*
X345187Y12671D01*
X345181Y12770D01*
X345179Y12869D01*
X345179Y17173D01*
X345181Y17289D01*
X345187Y17405D01*
X345197Y17521D01*
X345210Y17637D01*
X345228Y17752D01*
X345249Y17866D01*
X345275Y17980D01*
X345304Y18092D01*
X345337Y18204D01*
X345374Y18314D01*
X345414Y18423D01*
X345458Y18531D01*
X345506Y18637D01*
X345557Y18741D01*
X345612Y18844D01*
X345670Y18945D01*
X345731Y19043D01*
X345796Y19140D01*
X345864Y19234D01*
X345935Y19326D01*
X346010Y19416D01*
X346087Y19503D01*
X346167Y19587D01*
X346250Y19668D01*
X346336Y19747D01*
X346424Y19823D01*
X346515Y19896D01*
X346608Y19965D01*
X346703Y20032D01*
X346801Y20095D01*
X346901Y20155D01*
X347002Y20211D01*
X347106Y20264D01*
X347211Y20314D01*
X347318Y20359D01*
X347426Y20402D01*
X347536Y20440D01*
X347647Y20475D01*
X347759Y20506D01*
X347872Y20533D01*
X347986Y20557D01*
X348101Y20576D01*
X348216Y20592D01*
X348332Y20604D01*
X348448Y20612D01*
X348564Y20616D01*
X348680Y20616D01*
X348796Y20612D01*
X348912Y20604D01*
X349028Y20592D01*
X349143Y20576D01*
X349258Y20557D01*
X349372Y20533D01*
X349485Y20506D01*
X349597Y20475D01*
X349708Y20440D01*
X349818Y20402D01*
X349926Y20359D01*
X350033Y20314D01*
X350138Y20264D01*
X350242Y20211D01*
X350344Y20155D01*
X350443Y20095D01*
X350541Y20032D01*
X350636Y19965D01*
X350729Y19896D01*
X350820Y19823D01*
X350908Y19747D01*
X350994Y19668D01*
X351077Y19587D01*
X351157Y19503D01*
X351234Y19416D01*
X351309Y19326D01*
X351380Y19234D01*
X351448Y19140D01*
X351513Y19043D01*
X351574Y18945D01*
X351632Y18844D01*
X351687Y18741D01*
X351738Y18637D01*
X351786Y18531D01*
X351830Y18423D01*
X351870Y18314D01*
X351907Y18204D01*
X351940Y18092D01*
X351969Y17980D01*
X351995Y17866D01*
X352016Y17752D01*
X352034Y17637D01*
X352047Y17521D01*
X352057Y17405D01*
X352063Y17289D01*
X352065Y17173D01*
X352065Y15452D01*
X345179Y15452D01*
D11*
X168570Y142917D03*
X168570Y155617D03*
X168570Y168317D03*
X168570Y181017D03*
X168570Y193717D03*
X168570Y206417D03*
X168570Y219117D03*
X168570Y231817D03*
X168570Y244517D03*
X168570Y257217D03*
X168570Y269917D03*
X168570Y282617D03*
X168570Y295317D03*
X168570Y308017D03*
D12*
X201859Y123190D03*
X214559Y123190D03*
X227259Y123190D03*
X239959Y123190D03*
X252659Y123190D03*
X265359Y123190D03*
X278059Y123190D03*
X290759Y123190D03*
X303459Y123190D03*
X316159Y123190D03*
D11*
X349277Y142914D03*
X349277Y155614D03*
X349277Y168314D03*
X349277Y181014D03*
X349277Y193714D03*
X349277Y206414D03*
X349277Y219114D03*
X349277Y244514D03*
X349277Y257214D03*
X349277Y269914D03*
X349277Y282614D03*
X349277Y295314D03*
X349277Y308014D03*
D13*
X98910Y219961D03*
X98910Y245361D03*
X98910Y270761D03*
X98910Y296161D03*
X98910Y321561D03*
X17540Y184190D03*
X17540Y354840D03*
D14*
X144735Y348764D03*
X144735Y319256D03*
D15*
X116332Y157480D02*
X97028Y157480D01*
X97028Y182880D02*
X116332Y182880D01*
D16*
X120654Y99002D03*
X95254Y99002D03*
X69854Y99002D03*
X44454Y99002D03*
X154510Y17540D03*
X10160Y17620D03*
D17*
X362620Y84724D03*
X287620Y84724D03*
D13*
X423060Y284758D03*
X423060Y259358D03*
X423060Y233958D03*
X423060Y208558D03*
X423060Y183158D03*
X504430Y320529D03*
X504430Y71139D03*
X423060Y157758D03*
X423060Y132358D03*
X423060Y106958D03*
D18*
X184983Y84417D03*
D19*
X209983Y84417D03*
X234983Y84417D03*
X259983Y84417D03*
D20*
X149374Y132080D03*
X119866Y132080D03*
D21*
X168570Y295317D02*
X189230Y295317D01*
X189230Y335280D02*
X175746Y348764D01*
X144735Y348764D01*
X189230Y335280D02*
X189230Y295317D01*
X189230Y88665D01*
X184983Y48697D02*
X187960Y45720D01*
X421640Y45720D01*
X459740Y83820D01*
X459740Y264160D01*
X439142Y284758D01*
X423060Y284758D01*
X189230Y88665D02*
X184983Y84417D01*
X184983Y48697D01*
X179305Y78740D02*
X184983Y84417D01*
X179305Y78740D02*
X127000Y78740D01*
X120654Y85086D01*
X120654Y99002D01*
X168570Y325460D02*
X160187Y333843D01*
X168570Y325460D02*
X168570Y308017D01*
X201859Y135819D02*
X201859Y123190D01*
X201859Y135819D02*
X210820Y144780D01*
X294640Y144780D01*
X303459Y135961D01*
X303459Y123190D01*
X303459Y90099D01*
X298084Y84724D01*
X287620Y84724D01*
X70194Y326844D02*
X77193Y333843D01*
X160187Y333843D01*
X75809Y157480D02*
X95254Y138036D01*
X75809Y157480D02*
X70194Y163095D01*
X70194Y220980D01*
X70194Y326844D01*
X97891Y220980D02*
X98910Y219961D01*
X97891Y220980D02*
X70194Y220980D01*
X95254Y138036D02*
X95254Y99002D01*
X201859Y95086D02*
X201859Y123190D01*
X201859Y95086D02*
X208045Y88900D01*
X208045Y86355D02*
X209983Y84417D01*
X208045Y86355D02*
X208045Y88900D01*
X250786Y269914D02*
X349277Y269914D01*
X250786Y269914D02*
X224005Y296695D01*
X224005Y355115D01*
X205740Y373380D01*
X81280Y373380D01*
X44454Y336554D01*
X44454Y99002D01*
X69854Y99002D02*
X69854Y146046D01*
X55392Y160508D01*
X55392Y332592D01*
X86021Y363220D01*
X200180Y363220D01*
X213254Y350146D01*
X213254Y292206D01*
X248246Y257214D01*
X349277Y257214D01*
X168570Y193717D02*
X149183Y193717D01*
X139700Y203200D01*
X139700Y251460D01*
X120399Y270761D01*
X98910Y270761D01*
X120399Y245361D02*
X129540Y236220D01*
X129540Y195580D01*
X144103Y181017D01*
X168570Y181017D01*
X120399Y245361D02*
X98910Y245361D01*
X154263Y206417D02*
X168570Y206417D01*
X154263Y206417D02*
X149860Y210820D01*
X149860Y269240D01*
X122939Y296161D01*
X98910Y296161D01*
X394499Y183158D02*
X423060Y183158D01*
X394499Y183158D02*
X383942Y193714D01*
X349277Y193714D01*
X349277Y181014D02*
X375246Y181014D01*
X398502Y157758D01*
X423060Y157758D01*
X404718Y132358D02*
X368762Y168314D01*
X404718Y132358D02*
X423060Y132358D01*
X368762Y168314D02*
X349277Y168314D01*
X423060Y106958D02*
X423060Y106776D01*
X362546Y155614D02*
X349277Y155614D01*
X362546Y155614D02*
X391160Y127000D01*
X391160Y111760D01*
X396144Y106776D01*
X423060Y106776D01*
X420916Y206414D02*
X423060Y208558D01*
X420916Y206414D02*
X349277Y206414D01*
X381000Y254000D02*
X401042Y233958D01*
X423060Y233958D01*
X381000Y254000D02*
X381000Y274318D01*
X360004Y295314D01*
X349277Y295314D01*
X168570Y282617D02*
X153684Y282617D01*
X144735Y291567D02*
X144735Y319256D01*
X144735Y291567D02*
X153684Y282617D01*
X142430Y321561D02*
X98910Y321561D01*
X142430Y321561D02*
X144735Y319256D01*
X316159Y123190D02*
X316159Y79939D01*
X304800Y68580D01*
X271537Y68580D01*
X259983Y80134D01*
X259983Y84417D01*
X214559Y113101D02*
X214559Y123190D01*
X214559Y113101D02*
X234280Y93380D01*
X234280Y85120D01*
X234983Y84417D01*
X121920Y182880D02*
X106680Y182880D01*
X121920Y182880D02*
X137160Y167640D01*
X167893Y167640D01*
X168570Y168317D01*
X349277Y142914D02*
X349277Y98067D01*
X362620Y84724D01*
D22*
X403860Y332740D02*
X439420Y332740D01*
X439420Y337820D01*
X439420Y367036D01*
X439420Y373041D01*
X447040Y374656D02*
X447040Y337820D01*
X439420Y337820D01*
X439420Y367036D02*
X447040Y374656D01*
X439420Y373041D02*
X403860Y332740D01*
D21*
X131594Y157480D02*
X106680Y157480D01*
X131594Y157480D02*
X149374Y139700D01*
X149374Y132080D01*
M02*
