G04 EAGLE Gerber RS-274X export*
G75*
%MOMM*%
%FSLAX34Y34*%
%LPD*%
%INSoldermask Top*%
%IPPOS*%
%AMOC8*
5,1,8,0,0,1.08239X$1,22.5*%
G01*
G04 Define Apertures*
%ADD10R,1.800000X0.863600*%
%ADD11R,0.863600X1.800000*%
%ADD12R,3.000000X1.270000*%
%ADD13R,1.815300X1.164600*%
%ADD14C,1.930400*%
%ADD15R,1.270000X3.000000*%
%ADD16R,1.600000X1.400000*%
%ADD17R,1.778000X1.778000*%
%ADD18C,1.778000*%
%ADD19R,1.164600X1.815300*%
D10*
X168570Y142917D03*
X168570Y155617D03*
X168570Y168317D03*
X168570Y181017D03*
X168570Y193717D03*
X168570Y206417D03*
X168570Y219117D03*
X168570Y231817D03*
X168570Y244517D03*
X168570Y257217D03*
X168570Y269917D03*
X168570Y282617D03*
X168570Y295317D03*
X168570Y308017D03*
D11*
X201859Y123190D03*
X214559Y123190D03*
X227259Y123190D03*
X239959Y123190D03*
X252659Y123190D03*
X265359Y123190D03*
X278059Y123190D03*
X290759Y123190D03*
X303459Y123190D03*
X316159Y123190D03*
D10*
X349277Y142914D03*
X349277Y155614D03*
X349277Y168314D03*
X349277Y181014D03*
X349277Y193714D03*
X349277Y206414D03*
X349277Y219114D03*
X349277Y244514D03*
X349277Y257214D03*
X349277Y269914D03*
X349277Y282614D03*
X349277Y295314D03*
X349277Y308014D03*
D12*
X98910Y219961D03*
X98910Y245361D03*
X98910Y270761D03*
X98910Y296161D03*
X98910Y321561D03*
X17540Y184190D03*
X17540Y354840D03*
D13*
X144735Y348764D03*
X144735Y319256D03*
D14*
X116332Y157480D02*
X97028Y157480D01*
X97028Y182880D02*
X116332Y182880D01*
D15*
X120654Y99002D03*
X95254Y99002D03*
X69854Y99002D03*
X44454Y99002D03*
X154510Y17540D03*
X10160Y17620D03*
D16*
X362620Y84724D03*
X287620Y84724D03*
D12*
X423060Y284758D03*
X423060Y259358D03*
X423060Y233958D03*
X423060Y208558D03*
X423060Y183158D03*
X504430Y320529D03*
X504430Y71139D03*
X423060Y157758D03*
X423060Y132358D03*
X423060Y106958D03*
D17*
X184983Y84417D03*
D18*
X209983Y84417D03*
X234983Y84417D03*
X259983Y84417D03*
D19*
X149374Y132080D03*
X119866Y132080D03*
M02*
