G04 EAGLE Gerber RS-274X export*
G75*
%MOMM*%
%FSLAX34Y34*%
%LPD*%
%INTop Copper*%
%IPPOS*%
%AMOC8*
5,1,8,0,0,1.08239X$1,22.5*%
G01*
G04 Define Apertures*
%ADD10C,0.127000*%
%ADD11C,1.524000*%
%ADD12C,0.406400*%
%ADD13C,0.457200*%
%ADD14C,5.500000*%
%ADD15C,0.254000*%
G36*
X212881Y10701D02*
X212088Y10540D01*
X10872Y10540D01*
X10140Y10677D01*
X9458Y11112D01*
X9001Y11779D01*
X8840Y12572D01*
X8840Y79030D01*
X8886Y79461D01*
X9212Y80201D01*
X9800Y80756D01*
X10559Y81037D01*
X11367Y81000D01*
X12096Y80651D01*
X12632Y80046D01*
X16736Y72937D01*
X22423Y67250D01*
X29389Y63228D01*
X37159Y61146D01*
X45202Y61146D01*
X52971Y63228D01*
X59937Y67250D01*
X65625Y72937D01*
X69647Y79903D01*
X71728Y87672D01*
X71728Y95716D01*
X69647Y103485D01*
X69339Y104018D01*
X69069Y104937D01*
X69192Y105736D01*
X69617Y106424D01*
X70276Y106892D01*
X71066Y107066D01*
X71861Y106918D01*
X72535Y106471D01*
X74612Y104395D01*
X78906Y102616D01*
X86818Y102616D01*
X86818Y112268D01*
X69546Y112268D01*
X69546Y111976D01*
X69874Y111185D01*
X69993Y110785D01*
X69982Y109976D01*
X69656Y109236D01*
X69068Y108681D01*
X68310Y108400D01*
X67502Y108437D01*
X66772Y108786D01*
X66236Y109391D01*
X65625Y110451D01*
X59937Y116138D01*
X52971Y120160D01*
X45202Y122242D01*
X37159Y122242D01*
X29389Y120160D01*
X22423Y116138D01*
X16736Y110451D01*
X12632Y103342D01*
X12376Y102992D01*
X11724Y102514D01*
X10937Y102327D01*
X10140Y102463D01*
X9458Y102899D01*
X9001Y103566D01*
X8840Y104358D01*
X8840Y124588D01*
X8977Y125321D01*
X9412Y126002D01*
X10079Y126459D01*
X10872Y126620D01*
X72121Y126620D01*
X72823Y126495D01*
X73511Y126070D01*
X73979Y125410D01*
X74152Y124620D01*
X74004Y123825D01*
X73557Y123151D01*
X71325Y120918D01*
X69546Y116624D01*
X69546Y116332D01*
X108154Y116332D01*
X108154Y116624D01*
X106375Y120918D01*
X104143Y123151D01*
X103735Y123736D01*
X103548Y124523D01*
X103684Y125321D01*
X104120Y126002D01*
X104787Y126459D01*
X105579Y126620D01*
X138582Y126620D01*
X139284Y126495D01*
X139972Y126070D01*
X140440Y125410D01*
X140613Y124620D01*
X140465Y123825D01*
X140018Y123151D01*
X137210Y120343D01*
X135586Y116422D01*
X135586Y112178D01*
X137210Y108257D01*
X140211Y105256D01*
X144132Y103632D01*
X163616Y103632D01*
X167537Y105256D01*
X169202Y106922D01*
X169817Y107343D01*
X170607Y107516D01*
X171402Y107368D01*
X172076Y106922D01*
X174857Y104141D01*
X179151Y102362D01*
X187063Y102362D01*
X187063Y116078D01*
X208399Y116078D01*
X208399Y116370D01*
X206621Y120664D01*
X204134Y123151D01*
X203726Y123736D01*
X203540Y124523D01*
X203675Y125321D01*
X204111Y126002D01*
X204778Y126459D01*
X205571Y126620D01*
X239081Y126620D01*
X239783Y126495D01*
X240471Y126070D01*
X240939Y125410D01*
X241113Y124620D01*
X240964Y123825D01*
X240518Y123151D01*
X237455Y120089D01*
X235831Y116168D01*
X235831Y111924D01*
X237455Y108003D01*
X240456Y105002D01*
X244377Y103378D01*
X263861Y103378D01*
X267782Y105002D01*
X269617Y106837D01*
X270231Y107258D01*
X271021Y107431D01*
X271816Y107283D01*
X272490Y106837D01*
X275102Y104225D01*
X279397Y102446D01*
X287309Y102446D01*
X287309Y116162D01*
X308645Y116162D01*
X308645Y116454D01*
X306866Y120748D01*
X304463Y123151D01*
X304055Y123736D01*
X303869Y124523D01*
X304005Y125321D01*
X304440Y126002D01*
X305107Y126459D01*
X305900Y126620D01*
X339242Y126620D01*
X339944Y126495D01*
X340632Y126070D01*
X341100Y125410D01*
X341274Y124620D01*
X341126Y123825D01*
X340679Y123151D01*
X337701Y120173D01*
X336077Y116252D01*
X336077Y112008D01*
X337701Y108087D01*
X340702Y105086D01*
X344623Y103462D01*
X364107Y103462D01*
X368028Y105086D01*
X369947Y107006D01*
X370562Y107427D01*
X371351Y107600D01*
X372146Y107452D01*
X372821Y107006D01*
X375348Y104479D01*
X379642Y102700D01*
X387554Y102700D01*
X387554Y116416D01*
X408890Y116416D01*
X408890Y116708D01*
X407111Y121002D01*
X404962Y123151D01*
X404554Y123736D01*
X404368Y124523D01*
X404504Y125321D01*
X404940Y126002D01*
X405607Y126459D01*
X406399Y126620D01*
X439233Y126620D01*
X439936Y126495D01*
X440624Y126070D01*
X441092Y125410D01*
X441265Y124620D01*
X441117Y123825D01*
X440670Y123151D01*
X437946Y120427D01*
X436322Y116506D01*
X436322Y112262D01*
X437946Y108341D01*
X440947Y105340D01*
X444868Y103716D01*
X464352Y103716D01*
X468273Y105340D01*
X471274Y108341D01*
X472898Y112262D01*
X472898Y116506D01*
X471274Y120427D01*
X468550Y123151D01*
X468142Y123736D01*
X467955Y124523D01*
X468091Y125321D01*
X468527Y126002D01*
X469194Y126459D01*
X469986Y126620D01*
X532588Y126620D01*
X533321Y126483D01*
X534002Y126048D01*
X534459Y125381D01*
X534620Y124588D01*
X534620Y104288D01*
X534574Y103857D01*
X534248Y103117D01*
X533660Y102562D01*
X532901Y102281D01*
X532093Y102317D01*
X531364Y102666D01*
X530828Y103272D01*
X526684Y110451D01*
X520996Y116138D01*
X514030Y120160D01*
X506261Y122242D01*
X498217Y122242D01*
X490448Y120160D01*
X483482Y116138D01*
X477795Y110451D01*
X473773Y103485D01*
X471691Y95716D01*
X471691Y87672D01*
X473773Y79903D01*
X477795Y72937D01*
X483482Y67250D01*
X490448Y63228D01*
X498217Y61146D01*
X506261Y61146D01*
X514030Y63228D01*
X520996Y67250D01*
X526684Y72937D01*
X530828Y80116D01*
X531084Y80466D01*
X531736Y80945D01*
X532523Y81131D01*
X533321Y80995D01*
X534002Y80559D01*
X534459Y79892D01*
X534620Y79100D01*
X534620Y32558D01*
X534574Y32127D01*
X534248Y31386D01*
X533660Y30832D01*
X532901Y30551D01*
X532093Y30587D01*
X531364Y30936D01*
X530828Y31542D01*
X529265Y34249D01*
X526115Y36068D01*
X518885Y36068D01*
X518289Y35659D01*
X517499Y35486D01*
X516704Y35634D01*
X516049Y36068D01*
X509593Y36068D01*
X506427Y34240D01*
X505968Y34045D01*
X505161Y33983D01*
X504395Y34240D01*
X501228Y36068D01*
X493795Y36068D01*
X491637Y33911D01*
X491637Y32538D01*
X491484Y31764D01*
X491033Y31092D01*
X490356Y30650D01*
X489560Y30507D01*
X488771Y30686D01*
X487242Y31374D01*
X484652Y31411D01*
X482593Y31440D01*
X480839Y30023D01*
X480119Y29649D01*
X479313Y29587D01*
X478546Y29844D01*
X475861Y31394D01*
X475839Y31411D01*
X468814Y31411D01*
X467768Y30365D01*
X466888Y29848D01*
X466082Y29785D01*
X465315Y30042D01*
X462943Y31411D01*
X459306Y31411D01*
X457528Y30385D01*
X456545Y30113D01*
X455750Y30261D01*
X455075Y30708D01*
X454020Y31763D01*
X453586Y32407D01*
X453425Y33200D01*
X453425Y33911D01*
X451268Y36068D01*
X448217Y36068D01*
X446844Y34696D01*
X446230Y34274D01*
X445440Y34101D01*
X444645Y34249D01*
X443971Y34696D01*
X442598Y36068D01*
X439547Y36068D01*
X437390Y33911D01*
X437390Y33443D01*
X437253Y32711D01*
X436817Y32030D01*
X436150Y31572D01*
X435358Y31411D01*
X433045Y31411D01*
X432903Y31269D01*
X432288Y30848D01*
X431499Y30674D01*
X430704Y30823D01*
X430029Y31269D01*
X429887Y31411D01*
X426676Y31411D01*
X426181Y31472D01*
X425451Y31821D01*
X424916Y32427D01*
X423864Y34249D01*
X420714Y36068D01*
X413489Y36068D01*
X411332Y33911D01*
X411332Y16889D01*
X413489Y14732D01*
X418895Y14732D01*
X418895Y14732D01*
X420922Y14732D01*
X423985Y16500D01*
X424443Y16695D01*
X425250Y16757D01*
X426017Y16500D01*
X429049Y14749D01*
X429072Y14732D01*
X436096Y14732D01*
X437078Y15714D01*
X437958Y16231D01*
X438764Y16294D01*
X439531Y16037D01*
X441760Y14749D01*
X441783Y14732D01*
X445703Y14732D01*
X446341Y15371D01*
X447221Y15888D01*
X448027Y15950D01*
X448794Y15694D01*
X450430Y14749D01*
X450452Y14732D01*
X454372Y14732D01*
X455075Y15435D01*
X455955Y15953D01*
X456761Y16015D01*
X457528Y15758D01*
X459306Y14732D01*
X462943Y14732D01*
X465315Y16101D01*
X466299Y16373D01*
X467094Y16225D01*
X467768Y15778D01*
X468814Y14732D01*
X471865Y14732D01*
X472007Y14874D01*
X472622Y15295D01*
X473412Y15469D01*
X474207Y15321D01*
X474881Y14874D01*
X475023Y14732D01*
X478074Y14732D01*
X478777Y15434D01*
X479319Y15822D01*
X480101Y16026D01*
X480901Y15910D01*
X481412Y15726D01*
X481412Y15726D01*
X484061Y14773D01*
X486875Y14732D01*
X486919Y14732D01*
X488934Y14703D01*
X490217Y15740D01*
X490672Y16017D01*
X491462Y16191D01*
X492257Y16042D01*
X492931Y15596D01*
X493795Y14732D01*
X496846Y14732D01*
X499003Y16889D01*
X499003Y18909D01*
X499140Y19641D01*
X499576Y20323D01*
X500243Y20780D01*
X501035Y20941D01*
X501228Y20941D01*
X501577Y21142D01*
X502528Y21414D01*
X503325Y21278D01*
X504007Y20842D01*
X504464Y20175D01*
X504525Y19873D01*
X506443Y16551D01*
X509594Y14732D01*
X516048Y14732D01*
X516644Y15141D01*
X517434Y15314D01*
X518229Y15166D01*
X518884Y14732D01*
X524297Y14732D01*
X524297Y14732D01*
X526323Y14732D01*
X529833Y16759D01*
X530828Y18482D01*
X531084Y18832D01*
X531736Y19310D01*
X532523Y19497D01*
X533321Y19361D01*
X534002Y18925D01*
X534459Y18258D01*
X534620Y17466D01*
X534620Y12572D01*
X534483Y11840D01*
X534048Y11158D01*
X533381Y10701D01*
X532588Y10540D01*
X337651Y10540D01*
X336934Y10671D01*
X336249Y11101D01*
X335787Y11765D01*
X335620Y12556D01*
X335774Y13350D01*
X336804Y15836D01*
X336804Y23748D01*
X323088Y23748D01*
X323088Y45084D01*
X322796Y45084D01*
X318502Y43305D01*
X315215Y40018D01*
X313747Y36476D01*
X313363Y35875D01*
X312707Y35402D01*
X311919Y35222D01*
X311123Y35364D01*
X310445Y35805D01*
X309993Y36476D01*
X308764Y39443D01*
X305557Y42650D01*
X305418Y42741D01*
X304961Y43408D01*
X304800Y44200D01*
X304800Y45314D01*
X304949Y46077D01*
X305395Y46751D01*
X333373Y74729D01*
X333944Y75130D01*
X334729Y75323D01*
X335528Y75193D01*
X336212Y74763D01*
X336675Y74100D01*
X336842Y73308D01*
X336687Y72515D01*
X336077Y71040D01*
X336077Y66796D01*
X337701Y62875D01*
X340702Y59874D01*
X344623Y58250D01*
X364107Y58250D01*
X368028Y59874D01*
X370665Y62512D01*
X371280Y62933D01*
X372070Y63107D01*
X372865Y62959D01*
X373539Y62512D01*
X375923Y60128D01*
X379844Y58504D01*
X399328Y58504D01*
X403249Y60128D01*
X406250Y63129D01*
X407874Y67050D01*
X407874Y71294D01*
X406250Y75215D01*
X403249Y78216D01*
X399328Y79840D01*
X394564Y79840D01*
X393801Y79989D01*
X393127Y80435D01*
X385436Y88127D01*
X383568Y88900D01*
X334270Y88900D01*
X332402Y88127D01*
X311097Y66822D01*
X310512Y66414D01*
X309725Y66228D01*
X308928Y66363D01*
X308247Y66799D01*
X307790Y67466D01*
X307629Y68259D01*
X307629Y71040D01*
X306005Y74961D01*
X303004Y77962D01*
X299083Y79586D01*
X279599Y79586D01*
X275678Y77962D01*
X273125Y75409D01*
X272510Y74988D01*
X271720Y74814D01*
X270925Y74962D01*
X270251Y75409D01*
X267782Y77878D01*
X263861Y79502D01*
X244377Y79502D01*
X240456Y77878D01*
X237455Y74877D01*
X235831Y70956D01*
X235831Y70707D01*
X235706Y70004D01*
X235281Y69316D01*
X234622Y68848D01*
X233832Y68675D01*
X233037Y68823D01*
X232362Y69270D01*
X228492Y73141D01*
X226624Y73914D01*
X207516Y73914D01*
X206768Y74057D01*
X206090Y74498D01*
X205991Y74645D01*
X202758Y77878D01*
X198837Y79502D01*
X179353Y79502D01*
X175432Y77878D01*
X173049Y75494D01*
X172434Y75073D01*
X171644Y74899D01*
X170849Y75047D01*
X170175Y75494D01*
X167537Y78132D01*
X163616Y79756D01*
X144132Y79756D01*
X140211Y78132D01*
X137210Y75131D01*
X135586Y71210D01*
X135586Y66966D01*
X137210Y63045D01*
X138366Y61889D01*
X138774Y61304D01*
X138960Y60517D01*
X138825Y59720D01*
X138389Y59038D01*
X137722Y58581D01*
X136930Y58420D01*
X107544Y58420D01*
X106781Y58569D01*
X106107Y59015D01*
X105232Y59890D01*
X104811Y60504D01*
X104637Y61294D01*
X104786Y62089D01*
X105232Y62764D01*
X105514Y63045D01*
X107138Y66966D01*
X107138Y71210D01*
X105514Y75131D01*
X102513Y78132D01*
X98592Y79756D01*
X79108Y79756D01*
X75187Y78132D01*
X72186Y75131D01*
X70562Y71210D01*
X70562Y66966D01*
X72186Y63045D01*
X75187Y60044D01*
X79108Y58420D01*
X91492Y58420D01*
X92255Y58271D01*
X92929Y57825D01*
X101720Y49033D01*
X103588Y48260D01*
X190094Y48260D01*
X190857Y48111D01*
X191531Y47665D01*
X212257Y26939D01*
X212691Y26295D01*
X212852Y25502D01*
X212852Y16038D01*
X213966Y13350D01*
X214119Y12637D01*
X213984Y11840D01*
X213548Y11158D01*
X212881Y10701D01*
G37*
%LPC*%
G36*
X391618Y102700D02*
X399530Y102700D01*
X403824Y104479D01*
X407111Y107766D01*
X408890Y112060D01*
X408890Y112352D01*
X391618Y112352D01*
X391618Y102700D01*
G37*
G36*
X90882Y102616D02*
X98794Y102616D01*
X103088Y104395D01*
X106375Y107682D01*
X108154Y111976D01*
X108154Y112268D01*
X90882Y112268D01*
X90882Y102616D01*
G37*
G36*
X291373Y102446D02*
X299285Y102446D01*
X303579Y104225D01*
X306866Y107512D01*
X308645Y111806D01*
X308645Y112098D01*
X291373Y112098D01*
X291373Y102446D01*
G37*
G36*
X191127Y102362D02*
X199039Y102362D01*
X203334Y104141D01*
X206621Y107428D01*
X208399Y111722D01*
X208399Y112014D01*
X191127Y112014D01*
X191127Y102362D01*
G37*
G36*
X444868Y58504D02*
X464352Y58504D01*
X468273Y60128D01*
X471274Y63129D01*
X472898Y67050D01*
X472898Y71294D01*
X471274Y75215D01*
X468273Y78216D01*
X464352Y79840D01*
X444868Y79840D01*
X440947Y78216D01*
X437946Y75215D01*
X436322Y71294D01*
X436322Y67050D01*
X437946Y63129D01*
X440947Y60128D01*
X444868Y58504D01*
G37*
G36*
X327152Y27812D02*
X336804Y27812D01*
X336804Y35724D01*
X335025Y40018D01*
X331738Y43305D01*
X327444Y45084D01*
X327152Y45084D01*
X327152Y27812D01*
G37*
G36*
X352169Y14732D02*
X355221Y14732D01*
X357835Y17346D01*
X358450Y17768D01*
X359239Y17941D01*
X360034Y17793D01*
X360709Y17346D01*
X363323Y14732D01*
X366425Y14732D01*
X366877Y15042D01*
X367667Y15215D01*
X368462Y15067D01*
X368968Y14732D01*
X377025Y14732D01*
X380175Y16551D01*
X381994Y19701D01*
X381994Y24890D01*
X380589Y27324D01*
X380317Y28308D01*
X380465Y29103D01*
X380912Y29777D01*
X381994Y30859D01*
X381994Y33911D01*
X379837Y36068D01*
X368884Y36068D01*
X368716Y35952D01*
X367926Y35779D01*
X367131Y35927D01*
X366918Y36068D01*
X352169Y36068D01*
X350012Y33911D01*
X350012Y16889D01*
X352169Y14732D01*
G37*
G36*
X390150Y20165D02*
X402514Y20165D01*
X404672Y22322D01*
X404672Y25373D01*
X402514Y27531D01*
X390150Y27531D01*
X387993Y25373D01*
X387993Y22322D01*
X390150Y20165D01*
G37*
%LPD*%
D10*
X353695Y18415D02*
X353695Y32385D01*
X359904Y32385D01*
X359904Y26176D02*
X353695Y26176D01*
X364849Y27728D02*
X364849Y18415D01*
X364461Y31609D02*
X364461Y32385D01*
X365237Y32385D01*
X365237Y31609D01*
X364461Y31609D01*
X370550Y18415D02*
X375207Y18415D01*
X375318Y18417D01*
X375428Y18423D01*
X375539Y18433D01*
X375649Y18447D01*
X375758Y18464D01*
X375867Y18486D01*
X375975Y18511D01*
X376081Y18541D01*
X376187Y18574D01*
X376292Y18611D01*
X376395Y18651D01*
X376496Y18696D01*
X376596Y18743D01*
X376695Y18795D01*
X376791Y18850D01*
X376885Y18908D01*
X376977Y18969D01*
X377067Y19034D01*
X377155Y19102D01*
X377240Y19173D01*
X377322Y19247D01*
X377402Y19324D01*
X377479Y19404D01*
X377553Y19486D01*
X377624Y19571D01*
X377692Y19659D01*
X377757Y19749D01*
X377818Y19841D01*
X377876Y19935D01*
X377931Y20031D01*
X377983Y20130D01*
X378030Y20230D01*
X378075Y20331D01*
X378115Y20434D01*
X378152Y20539D01*
X378185Y20645D01*
X378215Y20751D01*
X378240Y20859D01*
X378262Y20968D01*
X378279Y21077D01*
X378293Y21187D01*
X378303Y21298D01*
X378309Y21408D01*
X378311Y21519D01*
X378311Y23072D01*
X378309Y23183D01*
X378303Y23293D01*
X378293Y23404D01*
X378279Y23514D01*
X378262Y23623D01*
X378240Y23732D01*
X378215Y23840D01*
X378185Y23946D01*
X378152Y24052D01*
X378115Y24157D01*
X378075Y24260D01*
X378030Y24361D01*
X377983Y24461D01*
X377931Y24560D01*
X377876Y24656D01*
X377818Y24750D01*
X377757Y24842D01*
X377692Y24932D01*
X377624Y25020D01*
X377553Y25105D01*
X377479Y25187D01*
X377402Y25267D01*
X377322Y25344D01*
X377240Y25418D01*
X377155Y25489D01*
X377067Y25557D01*
X376977Y25622D01*
X376885Y25683D01*
X376791Y25741D01*
X376695Y25796D01*
X376596Y25848D01*
X376496Y25895D01*
X376395Y25940D01*
X376292Y25980D01*
X376187Y26017D01*
X376081Y26050D01*
X375975Y26080D01*
X375867Y26105D01*
X375758Y26127D01*
X375649Y26144D01*
X375539Y26158D01*
X375428Y26168D01*
X375318Y26174D01*
X375207Y26176D01*
X370550Y26176D01*
X370550Y32385D01*
X378311Y32385D01*
X391676Y23848D02*
X400989Y23848D01*
X415015Y26176D02*
X418895Y26176D01*
X418895Y26177D02*
X419018Y26175D01*
X419141Y26169D01*
X419264Y26159D01*
X419386Y26146D01*
X419508Y26128D01*
X419629Y26107D01*
X419750Y26082D01*
X419870Y26053D01*
X419988Y26020D01*
X420106Y25983D01*
X420222Y25943D01*
X420337Y25899D01*
X420451Y25851D01*
X420563Y25800D01*
X420673Y25746D01*
X420782Y25687D01*
X420889Y25626D01*
X420993Y25561D01*
X421096Y25493D01*
X421196Y25421D01*
X421294Y25347D01*
X421390Y25269D01*
X421483Y25188D01*
X421573Y25105D01*
X421661Y25018D01*
X421746Y24929D01*
X421828Y24838D01*
X421907Y24743D01*
X421983Y24646D01*
X422056Y24547D01*
X422126Y24446D01*
X422193Y24342D01*
X422256Y24236D01*
X422316Y24129D01*
X422372Y24019D01*
X422425Y23908D01*
X422475Y23795D01*
X422520Y23681D01*
X422563Y23565D01*
X422601Y23448D01*
X422636Y23330D01*
X422667Y23211D01*
X422694Y23091D01*
X422717Y22970D01*
X422736Y22848D01*
X422752Y22726D01*
X422764Y22604D01*
X422772Y22481D01*
X422776Y22358D01*
X422776Y22234D01*
X422772Y22111D01*
X422764Y21988D01*
X422752Y21866D01*
X422736Y21744D01*
X422717Y21622D01*
X422694Y21501D01*
X422667Y21381D01*
X422636Y21262D01*
X422601Y21144D01*
X422563Y21027D01*
X422520Y20911D01*
X422475Y20797D01*
X422425Y20684D01*
X422372Y20573D01*
X422316Y20463D01*
X422256Y20355D01*
X422193Y20250D01*
X422126Y20146D01*
X422056Y20045D01*
X421983Y19946D01*
X421907Y19849D01*
X421828Y19754D01*
X421746Y19663D01*
X421661Y19574D01*
X421573Y19487D01*
X421483Y19404D01*
X421390Y19323D01*
X421294Y19245D01*
X421196Y19171D01*
X421096Y19099D01*
X420993Y19031D01*
X420889Y18966D01*
X420782Y18905D01*
X420673Y18846D01*
X420563Y18792D01*
X420451Y18741D01*
X420337Y18693D01*
X420222Y18649D01*
X420106Y18609D01*
X419988Y18572D01*
X419870Y18539D01*
X419750Y18510D01*
X419629Y18485D01*
X419508Y18464D01*
X419386Y18446D01*
X419264Y18433D01*
X419141Y18423D01*
X419018Y18417D01*
X418895Y18415D01*
X415015Y18415D01*
X415015Y32385D01*
X418895Y32385D01*
X419006Y32383D01*
X419116Y32377D01*
X419227Y32367D01*
X419337Y32353D01*
X419446Y32336D01*
X419555Y32314D01*
X419663Y32289D01*
X419769Y32259D01*
X419875Y32226D01*
X419980Y32189D01*
X420083Y32149D01*
X420184Y32104D01*
X420284Y32057D01*
X420383Y32005D01*
X420479Y31950D01*
X420573Y31892D01*
X420665Y31831D01*
X420755Y31766D01*
X420843Y31698D01*
X420928Y31627D01*
X421010Y31553D01*
X421090Y31476D01*
X421167Y31396D01*
X421241Y31314D01*
X421312Y31229D01*
X421380Y31141D01*
X421445Y31051D01*
X421506Y30959D01*
X421564Y30865D01*
X421619Y30769D01*
X421671Y30670D01*
X421718Y30570D01*
X421763Y30469D01*
X421803Y30366D01*
X421840Y30261D01*
X421873Y30155D01*
X421903Y30049D01*
X421928Y29941D01*
X421950Y29832D01*
X421967Y29723D01*
X421981Y29613D01*
X421991Y29502D01*
X421997Y29392D01*
X421999Y29281D01*
X421997Y29170D01*
X421991Y29060D01*
X421981Y28949D01*
X421967Y28839D01*
X421950Y28730D01*
X421928Y28621D01*
X421903Y28513D01*
X421873Y28407D01*
X421840Y28301D01*
X421803Y28196D01*
X421763Y28093D01*
X421718Y27992D01*
X421671Y27892D01*
X421619Y27793D01*
X421564Y27697D01*
X421506Y27603D01*
X421445Y27511D01*
X421380Y27421D01*
X421312Y27333D01*
X421241Y27248D01*
X421167Y27166D01*
X421090Y27086D01*
X421010Y27009D01*
X420928Y26935D01*
X420843Y26864D01*
X420755Y26796D01*
X420665Y26731D01*
X420573Y26670D01*
X420479Y26612D01*
X420383Y26557D01*
X420284Y26505D01*
X420184Y26458D01*
X420083Y26413D01*
X419980Y26373D01*
X419875Y26336D01*
X419769Y26303D01*
X419663Y26273D01*
X419555Y26248D01*
X419446Y26226D01*
X419337Y26209D01*
X419227Y26195D01*
X419116Y26185D01*
X419006Y26179D01*
X418895Y26177D01*
X428362Y27728D02*
X428362Y20743D01*
X428364Y20649D01*
X428370Y20556D01*
X428379Y20462D01*
X428392Y20370D01*
X428409Y20277D01*
X428430Y20186D01*
X428454Y20095D01*
X428482Y20006D01*
X428513Y19917D01*
X428548Y19831D01*
X428587Y19745D01*
X428629Y19661D01*
X428674Y19579D01*
X428722Y19499D01*
X428774Y19421D01*
X428829Y19344D01*
X428887Y19271D01*
X428947Y19199D01*
X429011Y19130D01*
X429077Y19064D01*
X429146Y19000D01*
X429218Y18940D01*
X429291Y18882D01*
X429368Y18827D01*
X429446Y18775D01*
X429526Y18727D01*
X429608Y18682D01*
X429692Y18640D01*
X429778Y18601D01*
X429864Y18566D01*
X429953Y18535D01*
X430042Y18507D01*
X430133Y18483D01*
X430224Y18462D01*
X430317Y18445D01*
X430409Y18432D01*
X430503Y18423D01*
X430596Y18417D01*
X430690Y18415D01*
X434571Y18415D01*
X434571Y27728D01*
X439521Y27728D02*
X444177Y27728D01*
X441073Y32385D02*
X441073Y20743D01*
X441075Y20649D01*
X441081Y20556D01*
X441090Y20462D01*
X441103Y20370D01*
X441120Y20277D01*
X441141Y20186D01*
X441165Y20095D01*
X441193Y20006D01*
X441224Y19917D01*
X441259Y19831D01*
X441298Y19745D01*
X441340Y19661D01*
X441385Y19579D01*
X441433Y19499D01*
X441485Y19421D01*
X441540Y19344D01*
X441598Y19271D01*
X441658Y19199D01*
X441722Y19130D01*
X441788Y19064D01*
X441857Y19000D01*
X441929Y18940D01*
X442002Y18882D01*
X442079Y18827D01*
X442157Y18775D01*
X442237Y18727D01*
X442319Y18682D01*
X442403Y18640D01*
X442489Y18601D01*
X442575Y18566D01*
X442664Y18535D01*
X442753Y18507D01*
X442844Y18483D01*
X442935Y18462D01*
X443028Y18445D01*
X443120Y18432D01*
X443214Y18423D01*
X443307Y18417D01*
X443401Y18415D01*
X444177Y18415D01*
X448190Y27728D02*
X452847Y27728D01*
X449742Y32385D02*
X449742Y20743D01*
X449744Y20649D01*
X449750Y20556D01*
X449759Y20462D01*
X449772Y20370D01*
X449789Y20277D01*
X449810Y20186D01*
X449834Y20095D01*
X449862Y20006D01*
X449893Y19917D01*
X449928Y19831D01*
X449967Y19745D01*
X450009Y19661D01*
X450054Y19579D01*
X450102Y19499D01*
X450154Y19421D01*
X450209Y19344D01*
X450267Y19271D01*
X450327Y19199D01*
X450391Y19130D01*
X450457Y19064D01*
X450526Y19000D01*
X450598Y18940D01*
X450671Y18882D01*
X450748Y18827D01*
X450826Y18775D01*
X450906Y18727D01*
X450988Y18682D01*
X451072Y18640D01*
X451158Y18601D01*
X451244Y18566D01*
X451333Y18535D01*
X451422Y18507D01*
X451513Y18483D01*
X451604Y18462D01*
X451697Y18445D01*
X451789Y18432D01*
X451883Y18423D01*
X451976Y18417D01*
X452070Y18415D01*
X452847Y18415D01*
X458020Y21519D02*
X458020Y24624D01*
X458021Y24624D02*
X458023Y24735D01*
X458029Y24845D01*
X458039Y24956D01*
X458053Y25066D01*
X458070Y25175D01*
X458092Y25284D01*
X458117Y25392D01*
X458147Y25498D01*
X458180Y25604D01*
X458217Y25709D01*
X458257Y25812D01*
X458302Y25913D01*
X458349Y26013D01*
X458401Y26112D01*
X458456Y26208D01*
X458514Y26302D01*
X458575Y26394D01*
X458640Y26484D01*
X458708Y26572D01*
X458779Y26657D01*
X458853Y26739D01*
X458930Y26819D01*
X459010Y26896D01*
X459092Y26970D01*
X459177Y27041D01*
X459265Y27109D01*
X459355Y27174D01*
X459447Y27235D01*
X459541Y27293D01*
X459637Y27348D01*
X459736Y27400D01*
X459836Y27447D01*
X459937Y27492D01*
X460040Y27532D01*
X460145Y27569D01*
X460251Y27602D01*
X460357Y27632D01*
X460465Y27657D01*
X460574Y27679D01*
X460683Y27696D01*
X460793Y27710D01*
X460904Y27720D01*
X461014Y27726D01*
X461125Y27728D01*
X461236Y27726D01*
X461346Y27720D01*
X461457Y27710D01*
X461567Y27696D01*
X461676Y27679D01*
X461785Y27657D01*
X461893Y27632D01*
X461999Y27602D01*
X462105Y27569D01*
X462210Y27532D01*
X462313Y27492D01*
X462414Y27447D01*
X462514Y27400D01*
X462613Y27348D01*
X462709Y27293D01*
X462803Y27235D01*
X462895Y27174D01*
X462985Y27109D01*
X463073Y27041D01*
X463158Y26970D01*
X463240Y26896D01*
X463320Y26819D01*
X463397Y26739D01*
X463471Y26657D01*
X463542Y26572D01*
X463610Y26484D01*
X463675Y26394D01*
X463736Y26302D01*
X463794Y26208D01*
X463849Y26112D01*
X463901Y26013D01*
X463948Y25913D01*
X463993Y25812D01*
X464033Y25709D01*
X464070Y25604D01*
X464103Y25498D01*
X464133Y25392D01*
X464158Y25284D01*
X464180Y25175D01*
X464197Y25066D01*
X464211Y24956D01*
X464221Y24845D01*
X464227Y24735D01*
X464229Y24624D01*
X464229Y21519D01*
X464227Y21408D01*
X464221Y21298D01*
X464211Y21187D01*
X464197Y21077D01*
X464180Y20968D01*
X464158Y20859D01*
X464133Y20751D01*
X464103Y20645D01*
X464070Y20539D01*
X464033Y20434D01*
X463993Y20331D01*
X463948Y20230D01*
X463901Y20130D01*
X463849Y20031D01*
X463794Y19935D01*
X463736Y19841D01*
X463675Y19749D01*
X463610Y19659D01*
X463542Y19571D01*
X463471Y19486D01*
X463397Y19404D01*
X463320Y19324D01*
X463240Y19247D01*
X463158Y19173D01*
X463073Y19102D01*
X462985Y19034D01*
X462895Y18969D01*
X462803Y18908D01*
X462709Y18850D01*
X462613Y18795D01*
X462514Y18743D01*
X462414Y18696D01*
X462313Y18651D01*
X462210Y18611D01*
X462105Y18574D01*
X461999Y18541D01*
X461893Y18511D01*
X461785Y18486D01*
X461676Y18464D01*
X461567Y18447D01*
X461457Y18433D01*
X461346Y18423D01*
X461236Y18417D01*
X461125Y18415D01*
X461014Y18417D01*
X460904Y18423D01*
X460793Y18433D01*
X460683Y18447D01*
X460574Y18464D01*
X460465Y18486D01*
X460357Y18511D01*
X460251Y18541D01*
X460145Y18574D01*
X460040Y18611D01*
X459937Y18651D01*
X459836Y18696D01*
X459736Y18743D01*
X459637Y18795D01*
X459541Y18850D01*
X459447Y18908D01*
X459355Y18969D01*
X459265Y19034D01*
X459177Y19102D01*
X459092Y19173D01*
X459010Y19247D01*
X458930Y19324D01*
X458853Y19404D01*
X458779Y19486D01*
X458708Y19571D01*
X458640Y19659D01*
X458575Y19749D01*
X458514Y19841D01*
X458456Y19935D01*
X458401Y20031D01*
X458349Y20130D01*
X458302Y20230D01*
X458257Y20331D01*
X458217Y20434D01*
X458180Y20539D01*
X458147Y20645D01*
X458117Y20751D01*
X458092Y20859D01*
X458070Y20968D01*
X458053Y21077D01*
X458039Y21187D01*
X458029Y21298D01*
X458023Y21408D01*
X458021Y21519D01*
X470340Y18415D02*
X470340Y27728D01*
X474220Y27728D01*
X474316Y27726D01*
X474412Y27720D01*
X474508Y27710D01*
X474603Y27696D01*
X474698Y27678D01*
X474791Y27657D01*
X474884Y27631D01*
X474976Y27602D01*
X475066Y27569D01*
X475155Y27532D01*
X475242Y27491D01*
X475328Y27447D01*
X475412Y27400D01*
X475493Y27349D01*
X475573Y27295D01*
X475650Y27237D01*
X475725Y27176D01*
X475797Y27113D01*
X475866Y27046D01*
X475933Y26977D01*
X475996Y26905D01*
X476057Y26830D01*
X476115Y26753D01*
X476169Y26673D01*
X476220Y26592D01*
X476267Y26508D01*
X476311Y26422D01*
X476352Y26335D01*
X476389Y26246D01*
X476422Y26156D01*
X476451Y26064D01*
X476477Y25972D01*
X476498Y25878D01*
X476516Y25783D01*
X476530Y25688D01*
X476540Y25592D01*
X476546Y25496D01*
X476548Y25400D01*
X476549Y25400D02*
X476549Y18415D01*
X483824Y23848D02*
X487704Y22296D01*
X483824Y23848D02*
X483742Y23883D01*
X483662Y23921D01*
X483584Y23963D01*
X483508Y24008D01*
X483434Y24056D01*
X483362Y24108D01*
X483292Y24163D01*
X483225Y24221D01*
X483160Y24281D01*
X483099Y24345D01*
X483040Y24411D01*
X482984Y24480D01*
X482931Y24551D01*
X482881Y24624D01*
X482835Y24700D01*
X482791Y24777D01*
X482752Y24856D01*
X482716Y24937D01*
X482683Y25020D01*
X482654Y25104D01*
X482629Y25189D01*
X482608Y25275D01*
X482590Y25362D01*
X482577Y25449D01*
X482567Y25537D01*
X482561Y25626D01*
X482559Y25714D01*
X482561Y25803D01*
X482567Y25891D01*
X482576Y25979D01*
X482590Y26067D01*
X482607Y26154D01*
X482628Y26240D01*
X482653Y26325D01*
X482682Y26409D01*
X482714Y26491D01*
X482750Y26572D01*
X482790Y26652D01*
X482833Y26729D01*
X482879Y26805D01*
X482929Y26878D01*
X482981Y26950D01*
X483037Y27018D01*
X483096Y27085D01*
X483158Y27148D01*
X483222Y27209D01*
X483289Y27267D01*
X483359Y27322D01*
X483431Y27374D01*
X483505Y27422D01*
X483581Y27468D01*
X483659Y27510D01*
X483739Y27548D01*
X483821Y27583D01*
X483904Y27614D01*
X483988Y27642D01*
X484073Y27665D01*
X484159Y27685D01*
X484247Y27702D01*
X484334Y27714D01*
X484423Y27723D01*
X484511Y27727D01*
X484600Y27728D01*
X484812Y27723D01*
X485023Y27712D01*
X485235Y27696D01*
X485445Y27675D01*
X485656Y27649D01*
X485865Y27618D01*
X486074Y27582D01*
X486282Y27542D01*
X486489Y27496D01*
X486695Y27445D01*
X486899Y27389D01*
X487102Y27328D01*
X487304Y27262D01*
X487504Y27192D01*
X487702Y27117D01*
X487898Y27037D01*
X488092Y26952D01*
X487704Y22295D02*
X487786Y22260D01*
X487866Y22222D01*
X487944Y22180D01*
X488020Y22135D01*
X488094Y22087D01*
X488166Y22035D01*
X488236Y21980D01*
X488303Y21922D01*
X488368Y21862D01*
X488429Y21798D01*
X488488Y21732D01*
X488544Y21663D01*
X488597Y21592D01*
X488647Y21519D01*
X488693Y21443D01*
X488737Y21366D01*
X488776Y21287D01*
X488812Y21206D01*
X488845Y21123D01*
X488874Y21039D01*
X488899Y20954D01*
X488920Y20868D01*
X488938Y20781D01*
X488951Y20694D01*
X488961Y20606D01*
X488967Y20517D01*
X488969Y20429D01*
X488967Y20340D01*
X488961Y20252D01*
X488952Y20164D01*
X488938Y20076D01*
X488921Y19989D01*
X488900Y19903D01*
X488875Y19818D01*
X488846Y19734D01*
X488814Y19652D01*
X488778Y19571D01*
X488738Y19491D01*
X488695Y19414D01*
X488649Y19338D01*
X488599Y19265D01*
X488547Y19193D01*
X488491Y19125D01*
X488432Y19058D01*
X488370Y18995D01*
X488306Y18934D01*
X488239Y18876D01*
X488169Y18821D01*
X488097Y18769D01*
X488023Y18721D01*
X487947Y18675D01*
X487869Y18633D01*
X487789Y18595D01*
X487707Y18560D01*
X487624Y18529D01*
X487540Y18501D01*
X487455Y18478D01*
X487369Y18458D01*
X487281Y18441D01*
X487194Y18429D01*
X487105Y18420D01*
X487017Y18416D01*
X486928Y18415D01*
X486928Y18414D02*
X486617Y18422D01*
X486306Y18438D01*
X485996Y18461D01*
X485686Y18491D01*
X485377Y18528D01*
X485068Y18573D01*
X484762Y18625D01*
X484456Y18685D01*
X484152Y18751D01*
X483849Y18825D01*
X483549Y18906D01*
X483250Y18994D01*
X482954Y19089D01*
X482659Y19190D01*
X495320Y18415D02*
X495320Y32385D01*
X499201Y32385D01*
X499324Y32383D01*
X499447Y32377D01*
X499570Y32367D01*
X499692Y32354D01*
X499814Y32336D01*
X499935Y32315D01*
X500056Y32290D01*
X500176Y32261D01*
X500294Y32228D01*
X500412Y32191D01*
X500528Y32151D01*
X500643Y32107D01*
X500757Y32059D01*
X500869Y32008D01*
X500979Y31954D01*
X501088Y31895D01*
X501195Y31834D01*
X501299Y31769D01*
X501402Y31701D01*
X501502Y31629D01*
X501600Y31555D01*
X501696Y31477D01*
X501789Y31396D01*
X501879Y31313D01*
X501967Y31226D01*
X502052Y31137D01*
X502134Y31046D01*
X502213Y30951D01*
X502289Y30854D01*
X502362Y30755D01*
X502432Y30654D01*
X502499Y30550D01*
X502562Y30444D01*
X502622Y30337D01*
X502678Y30227D01*
X502731Y30116D01*
X502781Y30003D01*
X502826Y29889D01*
X502869Y29773D01*
X502907Y29656D01*
X502942Y29538D01*
X502973Y29419D01*
X503000Y29299D01*
X503023Y29178D01*
X503042Y29056D01*
X503058Y28934D01*
X503070Y28812D01*
X503078Y28689D01*
X503082Y28566D01*
X503082Y28442D01*
X503078Y28319D01*
X503070Y28196D01*
X503058Y28074D01*
X503042Y27952D01*
X503023Y27830D01*
X503000Y27709D01*
X502973Y27589D01*
X502942Y27470D01*
X502907Y27352D01*
X502869Y27235D01*
X502826Y27119D01*
X502781Y27005D01*
X502731Y26892D01*
X502678Y26781D01*
X502622Y26671D01*
X502562Y26563D01*
X502499Y26458D01*
X502432Y26354D01*
X502362Y26253D01*
X502289Y26154D01*
X502213Y26057D01*
X502134Y25962D01*
X502052Y25871D01*
X501967Y25782D01*
X501879Y25695D01*
X501789Y25612D01*
X501696Y25531D01*
X501600Y25453D01*
X501502Y25379D01*
X501402Y25307D01*
X501299Y25239D01*
X501195Y25174D01*
X501088Y25113D01*
X500979Y25054D01*
X500869Y25000D01*
X500757Y24949D01*
X500643Y24901D01*
X500528Y24857D01*
X500412Y24817D01*
X500294Y24780D01*
X500176Y24747D01*
X500056Y24718D01*
X499935Y24693D01*
X499814Y24672D01*
X499692Y24654D01*
X499570Y24641D01*
X499447Y24631D01*
X499324Y24625D01*
X499201Y24623D01*
X499201Y24624D02*
X495320Y24624D01*
X511412Y18415D02*
X514517Y18415D01*
X511412Y18415D02*
X511301Y18417D01*
X511191Y18423D01*
X511080Y18433D01*
X510970Y18447D01*
X510861Y18464D01*
X510752Y18486D01*
X510644Y18511D01*
X510538Y18541D01*
X510432Y18574D01*
X510327Y18611D01*
X510224Y18651D01*
X510123Y18696D01*
X510023Y18743D01*
X509924Y18795D01*
X509828Y18850D01*
X509734Y18908D01*
X509642Y18969D01*
X509552Y19034D01*
X509464Y19102D01*
X509379Y19173D01*
X509297Y19247D01*
X509217Y19324D01*
X509140Y19404D01*
X509066Y19486D01*
X508995Y19571D01*
X508927Y19659D01*
X508862Y19749D01*
X508801Y19841D01*
X508743Y19935D01*
X508688Y20031D01*
X508636Y20130D01*
X508589Y20230D01*
X508544Y20331D01*
X508504Y20434D01*
X508467Y20539D01*
X508434Y20645D01*
X508404Y20751D01*
X508379Y20859D01*
X508357Y20968D01*
X508340Y21077D01*
X508326Y21187D01*
X508316Y21298D01*
X508310Y21408D01*
X508308Y21519D01*
X508308Y29281D01*
X508310Y29392D01*
X508316Y29502D01*
X508326Y29613D01*
X508340Y29723D01*
X508357Y29832D01*
X508379Y29941D01*
X508404Y30049D01*
X508434Y30155D01*
X508467Y30261D01*
X508504Y30366D01*
X508544Y30469D01*
X508588Y30570D01*
X508636Y30670D01*
X508688Y30769D01*
X508743Y30865D01*
X508801Y30959D01*
X508862Y31051D01*
X508927Y31141D01*
X508995Y31229D01*
X509066Y31314D01*
X509140Y31396D01*
X509217Y31476D01*
X509297Y31553D01*
X509379Y31627D01*
X509464Y31698D01*
X509552Y31766D01*
X509642Y31831D01*
X509734Y31892D01*
X509828Y31950D01*
X509924Y32005D01*
X510023Y32057D01*
X510123Y32104D01*
X510224Y32149D01*
X510327Y32189D01*
X510432Y32226D01*
X510537Y32259D01*
X510644Y32289D01*
X510752Y32314D01*
X510861Y32336D01*
X510970Y32353D01*
X511080Y32367D01*
X511191Y32377D01*
X511301Y32383D01*
X511412Y32385D01*
X514517Y32385D01*
X520416Y26176D02*
X524297Y26176D01*
X524297Y26177D02*
X524420Y26175D01*
X524543Y26169D01*
X524666Y26159D01*
X524788Y26146D01*
X524910Y26128D01*
X525031Y26107D01*
X525152Y26082D01*
X525272Y26053D01*
X525390Y26020D01*
X525508Y25983D01*
X525624Y25943D01*
X525739Y25899D01*
X525853Y25851D01*
X525965Y25800D01*
X526075Y25746D01*
X526184Y25687D01*
X526291Y25626D01*
X526395Y25561D01*
X526498Y25493D01*
X526598Y25421D01*
X526696Y25347D01*
X526792Y25269D01*
X526885Y25188D01*
X526975Y25105D01*
X527063Y25018D01*
X527148Y24929D01*
X527230Y24838D01*
X527309Y24743D01*
X527385Y24646D01*
X527458Y24547D01*
X527528Y24446D01*
X527595Y24342D01*
X527658Y24236D01*
X527718Y24129D01*
X527774Y24019D01*
X527827Y23908D01*
X527877Y23795D01*
X527922Y23681D01*
X527965Y23565D01*
X528003Y23448D01*
X528038Y23330D01*
X528069Y23211D01*
X528096Y23091D01*
X528119Y22970D01*
X528138Y22848D01*
X528154Y22726D01*
X528166Y22604D01*
X528174Y22481D01*
X528178Y22358D01*
X528178Y22234D01*
X528174Y22111D01*
X528166Y21988D01*
X528154Y21866D01*
X528138Y21744D01*
X528119Y21622D01*
X528096Y21501D01*
X528069Y21381D01*
X528038Y21262D01*
X528003Y21144D01*
X527965Y21027D01*
X527922Y20911D01*
X527877Y20797D01*
X527827Y20684D01*
X527774Y20573D01*
X527718Y20463D01*
X527658Y20355D01*
X527595Y20250D01*
X527528Y20146D01*
X527458Y20045D01*
X527385Y19946D01*
X527309Y19849D01*
X527230Y19754D01*
X527148Y19663D01*
X527063Y19574D01*
X526975Y19487D01*
X526885Y19404D01*
X526792Y19323D01*
X526696Y19245D01*
X526598Y19171D01*
X526498Y19099D01*
X526395Y19031D01*
X526291Y18966D01*
X526184Y18905D01*
X526075Y18846D01*
X525965Y18792D01*
X525853Y18741D01*
X525739Y18693D01*
X525624Y18649D01*
X525508Y18609D01*
X525390Y18572D01*
X525272Y18539D01*
X525152Y18510D01*
X525031Y18485D01*
X524910Y18464D01*
X524788Y18446D01*
X524666Y18433D01*
X524543Y18423D01*
X524420Y18417D01*
X524297Y18415D01*
X520416Y18415D01*
X520416Y32385D01*
X524297Y32385D01*
X524408Y32383D01*
X524518Y32377D01*
X524629Y32367D01*
X524739Y32353D01*
X524848Y32336D01*
X524957Y32314D01*
X525065Y32289D01*
X525171Y32259D01*
X525277Y32226D01*
X525382Y32189D01*
X525485Y32149D01*
X525586Y32104D01*
X525686Y32057D01*
X525785Y32005D01*
X525881Y31950D01*
X525975Y31892D01*
X526067Y31831D01*
X526157Y31766D01*
X526245Y31698D01*
X526330Y31627D01*
X526412Y31553D01*
X526492Y31476D01*
X526569Y31396D01*
X526643Y31314D01*
X526714Y31229D01*
X526782Y31141D01*
X526847Y31051D01*
X526908Y30959D01*
X526966Y30865D01*
X527021Y30769D01*
X527073Y30670D01*
X527120Y30570D01*
X527165Y30469D01*
X527205Y30366D01*
X527242Y30261D01*
X527275Y30155D01*
X527305Y30049D01*
X527330Y29941D01*
X527352Y29832D01*
X527369Y29723D01*
X527383Y29613D01*
X527393Y29502D01*
X527399Y29392D01*
X527401Y29281D01*
X527399Y29170D01*
X527393Y29060D01*
X527383Y28949D01*
X527369Y28839D01*
X527352Y28730D01*
X527330Y28621D01*
X527305Y28513D01*
X527275Y28407D01*
X527242Y28301D01*
X527205Y28196D01*
X527165Y28093D01*
X527120Y27992D01*
X527073Y27892D01*
X527021Y27793D01*
X526966Y27697D01*
X526908Y27603D01*
X526847Y27511D01*
X526782Y27421D01*
X526714Y27333D01*
X526643Y27248D01*
X526569Y27166D01*
X526492Y27086D01*
X526412Y27009D01*
X526330Y26935D01*
X526245Y26864D01*
X526157Y26796D01*
X526067Y26731D01*
X525975Y26670D01*
X525881Y26612D01*
X525785Y26557D01*
X525686Y26505D01*
X525586Y26458D01*
X525485Y26413D01*
X525382Y26373D01*
X525277Y26336D01*
X525171Y26303D01*
X525065Y26273D01*
X524957Y26248D01*
X524848Y26226D01*
X524739Y26209D01*
X524629Y26195D01*
X524518Y26185D01*
X524408Y26179D01*
X524297Y26177D01*
D11*
X325120Y33400D02*
X325120Y18160D01*
X299720Y18160D02*
X299720Y33400D01*
X274320Y33400D02*
X274320Y18160D01*
X248920Y18160D02*
X248920Y33400D01*
X223520Y33400D02*
X223520Y18160D01*
X96470Y114300D02*
X81230Y114300D01*
X81230Y69088D02*
X96470Y69088D01*
X146254Y114300D02*
X161494Y114300D01*
X161494Y69088D02*
X146254Y69088D01*
X181475Y114046D02*
X196715Y114046D01*
X196715Y68834D02*
X181475Y68834D01*
X246499Y114046D02*
X261739Y114046D01*
X261739Y68834D02*
X246499Y68834D01*
X281721Y114130D02*
X296961Y114130D01*
X296961Y68918D02*
X281721Y68918D01*
X346745Y114130D02*
X361985Y114130D01*
X361985Y68918D02*
X346745Y68918D01*
X381966Y114384D02*
X397206Y114384D01*
X397206Y69172D02*
X381966Y69172D01*
X446990Y114384D02*
X462230Y114384D01*
X462230Y69172D02*
X446990Y69172D01*
D12*
X88900Y114300D02*
X88850Y114300D01*
X389586Y114384D02*
X390398Y113572D01*
D13*
X328040Y25780D02*
X325120Y25780D01*
D12*
X104598Y53340D02*
X88850Y69088D01*
X104598Y53340D02*
X193040Y53340D01*
X220600Y25780D01*
X223520Y25780D01*
X225614Y68834D02*
X189095Y68834D01*
X225614Y68834D02*
X246380Y48068D01*
X246380Y28320D01*
X248920Y25780D01*
X289341Y61298D02*
X289341Y68918D01*
X289341Y61298D02*
X274320Y46277D01*
X274320Y25780D01*
X299720Y48260D02*
X335280Y83820D01*
X389586Y76792D02*
X389586Y69172D01*
X389586Y76792D02*
X382558Y83820D01*
X335280Y83820D01*
X299720Y48260D02*
X299720Y25780D01*
D14*
X41180Y91694D03*
X502239Y91694D03*
D15*
X2490Y4190D02*
X540970Y4190D01*
X540970Y132970D01*
X2490Y132970D01*
X2490Y4190D01*
M02*
