M48
;GenerationSoftware,Autodesk,EAGLE,9.7.0*%
;CreationDate,2025-12-05T09:16:17Z*%
FMAT,2
ICI,OFF
METRIC,TZ,000.000
T2C1.016
T1C1.500
%
G90
M71
T1
X4118Y9169
X50224Y9169
T2
X32512Y2578
X29972Y2578
X27432Y2578
X24892Y2578
X22352Y2578
X8885Y11430
X8885Y6909
X15387Y11430
X15387Y6909
X18910Y11405
X18910Y6883
X25412Y11405
X25412Y6883
X28934Y11413
X28934Y6892
X35436Y11413
X35436Y6892
X38959Y11438
X38959Y6917
X45461Y11438
X45461Y6917
M30