G04 EAGLE Gerber RS-274X export*
G75*
%MOMM*%
%FSLAX34Y34*%
%LPD*%
%INSoldermask Top*%
%IPPOS*%
%AMOC8*
5,1,8,0,0,1.08239X$1,22.5*%
G01*
G04 Define Apertures*
%ADD10C,1.727200*%
%ADD11C,5.703200*%
D10*
X325120Y33400D02*
X325120Y18160D01*
X299720Y18160D02*
X299720Y33400D01*
X274320Y33400D02*
X274320Y18160D01*
X248920Y18160D02*
X248920Y33400D01*
X223520Y33400D02*
X223520Y18160D01*
X96470Y114300D02*
X81230Y114300D01*
X81230Y69088D02*
X96470Y69088D01*
X146254Y114300D02*
X161494Y114300D01*
X161494Y69088D02*
X146254Y69088D01*
X181475Y114046D02*
X196715Y114046D01*
X196715Y68834D02*
X181475Y68834D01*
X246499Y114046D02*
X261739Y114046D01*
X261739Y68834D02*
X246499Y68834D01*
X281721Y114130D02*
X296961Y114130D01*
X296961Y68918D02*
X281721Y68918D01*
X346745Y114130D02*
X361985Y114130D01*
X361985Y68918D02*
X346745Y68918D01*
X381966Y114384D02*
X397206Y114384D01*
X397206Y69172D02*
X381966Y69172D01*
X446990Y114384D02*
X462230Y114384D01*
X462230Y69172D02*
X446990Y69172D01*
D11*
X41180Y91694D03*
X502239Y91694D03*
M02*
